<?xml version="1.0" encoding="UTF-8"?>
<!DOCTYPE svg PUBLIC "-//W3C//DTD SVG 1.1//EN" "http://www.w3.org/Graphics/SVG/1.1/DTD/svg11.dtd">
<svg xmlns="http://www.w3.org/2000/svg" version="1.1" width="4997px" height="4013px" style="shape-rendering:geometricPrecision; text-rendering:geometricPrecision; image-rendering:optimizeQuality; fill-rule:evenodd; clip-rule:evenodd" xmlns:xlink="http://www.w3.org/1999/xlink">
<g><path style="opacity:0.117" fill="#fefefe" d="M -0.5,9.5 C -0.5,9.16667 -0.5,8.83333 -0.5,8.5C 2.5,8.5 5.5,8.5 8.5,8.5C 8.5,10.5 8.5,12.5 8.5,14.5C 10.1667,14.5 11.8333,14.5 13.5,14.5C 13.5,16.1667 13.5,17.8333 13.5,19.5C 15.5,19.5 17.5,19.5 19.5,19.5C 19.5,21.5 19.5,23.5 19.5,25.5C 21.5,25.5 23.5,25.5 25.5,25.5C 25.5,27.5 25.5,29.5 25.5,31.5C 27.4672,31.2606 29.3005,31.5939 31,32.5C 31.4983,35.8168 31.665,39.1501 31.5,42.5C 36.1679,41.8394 38.1679,43.8394 37.5,48.5C 39.1667,48.5 40.8333,48.5 42.5,48.5C 42.5,50.5 42.5,52.5 42.5,54.5C 44.5,54.5 46.5,54.5 48.5,54.5C 48.5,58.5 48.5,62.5 48.5,66.5C 50.5,66.5 52.5,66.5 54.5,66.5C 54.5,68.1667 54.5,69.8333 54.5,71.5C 56.4672,71.2606 58.3005,71.5939 60,72.5C 60.4986,76.1516 60.6653,79.8183 60.5,83.5C 65.5,82.5 67.5,84.5 66.5,89.5C 68.1667,89.5 69.8333,89.5 71.5,89.5C 71.5,93.1667 71.5,96.8333 71.5,100.5C 76.5,99.5 78.5,101.5 77.5,106.5C 79.5,106.5 81.5,106.5 83.5,106.5C 83.5,110.5 83.5,114.5 83.5,118.5C 85.5,118.5 87.5,118.5 89.5,118.5C 89.5,122.167 89.5,125.833 89.5,129.5C 91.1667,129.5 92.8333,129.5 94.5,129.5C 94.8333,131.5 95.1667,133.5 95.5,135.5C 97.1667,135.5 98.8333,135.5 100.5,135.5C 100.5,139.5 100.5,143.5 100.5,147.5C 102.5,147.5 104.5,147.5 106.5,147.5C 106.5,151.167 106.5,154.833 106.5,158.5C 108.467,158.261 110.301,158.594 112,159.5C 112.499,163.152 112.665,166.818 112.5,170.5C 114.5,170.5 116.5,170.5 118.5,170.5C 118.5,174.167 118.5,177.833 118.5,181.5C 120.144,181.286 121.644,181.62 123,182.5C 123.499,186.152 123.665,189.818 123.5,193.5C 125.5,193.5 127.5,193.5 129.5,193.5C 129.5,197.5 129.5,201.5 129.5,205.5C 131.5,205.5 133.5,205.5 135.5,205.5C 135.5,209.167 135.5,212.833 135.5,216.5C 137.467,216.261 139.301,216.594 141,217.5C 141.499,221.152 141.665,224.818 141.5,228.5C 143.467,228.261 145.301,228.594 147,229.5C 147.499,234.823 147.666,240.156 147.5,245.5C 149.167,245.5 150.833,245.5 152.5,245.5C 152.5,249.5 152.5,253.5 152.5,257.5C 154.5,257.5 156.5,257.5 158.5,257.5C 158.5,263.167 158.5,268.833 158.5,274.5C 160.5,274.5 162.5,274.5 164.5,274.5C 164.5,280.167 164.5,285.833 164.5,291.5C 166.5,291.833 168.5,292.167 170.5,292.5C 170.5,298.167 170.5,303.833 170.5,309.5C 172.467,309.261 174.301,309.594 176,310.5C 176.499,315.823 176.666,321.156 176.5,326.5C 178.167,326.5 179.833,326.5 181.5,326.5C 181.5,334.167 181.5,341.833 181.5,349.5C 183.467,349.261 185.301,349.594 187,350.5C 187.5,358.159 187.666,365.826 187.5,373.5C 189.5,373.5 191.5,373.5 193.5,373.5C 193.5,383.167 193.5,392.833 193.5,402.5C 195.5,402.5 197.5,402.5 199.5,402.5C 199.5,411.833 199.5,421.167 199.5,430.5C 201.722,430.178 203.556,430.845 205,432.5C 205.5,449.497 205.667,466.497 205.5,483.5C 207.167,483.5 208.833,483.5 210.5,483.5C 210.667,527.501 210.5,571.501 210,615.5C 208.644,616.38 207.144,616.714 205.5,616.5C 205.667,631.17 205.5,645.837 205,660.5C 203.599,662.192 201.766,662.859 199.5,662.5C 199.667,673.838 199.5,685.172 199,696.5C 197.301,697.406 195.467,697.739 193.5,697.5C 193.666,706.839 193.5,716.173 193,725.5C 191.301,726.406 189.467,726.739 187.5,726.5C 187.5,734.167 187.5,741.833 187.5,749.5C 185.5,749.5 183.5,749.5 181.5,749.5C 181.5,757.167 181.5,764.833 181.5,772.5C 179.833,772.5 178.167,772.5 176.5,772.5C 176.666,781.839 176.5,791.173 176,800.5C 174.301,801.406 172.467,801.739 170.5,801.5C 170.5,816.833 170.5,832.167 170.5,847.5C 168.5,847.5 166.5,847.5 164.5,847.5C 164.5,911.5 164.5,975.5 164.5,1039.5C 166.5,1039.5 168.5,1039.5 170.5,1039.5C 170.5,1058.5 170.5,1077.5 170.5,1096.5C 172.766,1096.14 174.599,1096.81 176,1098.5C 176.5,1111.5 176.667,1124.5 176.5,1137.5C 178.167,1137.5 179.833,1137.5 181.5,1137.5C 181.5,1149.17 181.5,1160.83 181.5,1172.5C 183.5,1172.5 185.5,1172.5 187.5,1172.5C 187.5,1183.83 187.5,1195.17 187.5,1206.5C 189.467,1206.26 191.301,1206.59 193,1207.5C 193.5,1216.83 193.666,1226.16 193.5,1235.5C 195.467,1235.26 197.301,1235.59 199,1236.5C 199.5,1244.16 199.666,1251.83 199.5,1259.5C 201.467,1259.26 203.301,1259.59 205,1260.5C 205.5,1267.83 205.666,1275.16 205.5,1282.5C 207.167,1282.5 208.833,1282.5 210.5,1282.5C 210.5,1290.17 210.5,1297.83 210.5,1305.5C 212.5,1305.5 214.5,1305.5 216.5,1305.5C 216.5,1313.17 216.5,1320.83 216.5,1328.5C 218.5,1328.5 220.5,1328.5 222.5,1328.5C 222.5,1336.17 222.5,1343.83 222.5,1351.5C 224.467,1351.26 226.301,1351.59 228,1352.5C 228.5,1359.83 228.666,1367.16 228.5,1374.5C 230.167,1374.5 231.833,1374.5 233.5,1374.5C 233.5,1380.5 233.5,1386.5 233.5,1392.5C 235.5,1392.5 237.5,1392.5 239.5,1392.5C 239.5,1398.17 239.5,1403.83 239.5,1409.5C 241.5,1409.5 243.5,1409.5 245.5,1409.5C 245.171,1415.21 245.505,1420.87 246.5,1426.5C 248.071,1427.31 249.738,1427.64 251.5,1427.5C 251.5,1433.17 251.5,1438.83 251.5,1444.5C 253.467,1444.26 255.301,1444.59 257,1445.5C 257.499,1450.82 257.666,1456.16 257.5,1461.5C 259.167,1461.5 260.833,1461.5 262.5,1461.5C 262.5,1467.5 262.5,1473.5 262.5,1479.5C 264.5,1479.5 266.5,1479.5 268.5,1479.5C 268.5,1485.17 268.5,1490.83 268.5,1496.5C 270.5,1496.5 272.5,1496.5 274.5,1496.5C 274.5,1502.17 274.5,1507.83 274.5,1513.5C 276.467,1513.26 278.301,1513.59 280,1514.5C 280.499,1520.16 280.666,1525.82 280.5,1531.5C 282.467,1531.26 284.301,1531.59 286,1532.5C 286.498,1535.82 286.665,1539.15 286.5,1542.5C 288.144,1542.29 289.644,1542.62 291,1543.5C 291.499,1549.16 291.666,1554.82 291.5,1560.5C 293.5,1560.5 295.5,1560.5 297.5,1560.5C 297.5,1564.17 297.5,1567.83 297.5,1571.5C 299.467,1571.26 301.301,1571.59 303,1572.5C 303.499,1578.16 303.666,1583.82 303.5,1589.5C 305.5,1589.5 307.5,1589.5 309.5,1589.5C 309.5,1593.17 309.5,1596.83 309.5,1600.5C 311.167,1600.5 312.833,1600.5 314.5,1600.5C 315.363,1606.45 315.697,1612.45 315.5,1618.5C 317.167,1618.5 318.833,1618.5 320.5,1618.5C 320.5,1622.17 320.5,1625.83 320.5,1629.5C 322.5,1629.5 324.5,1629.5 326.5,1629.5C 326.5,1633.5 326.5,1637.5 326.5,1641.5C 328.5,1641.5 330.5,1641.5 332.5,1641.5C 332.5,1645.17 332.5,1648.83 332.5,1652.5C 334.467,1652.26 336.301,1652.59 338,1653.5C 338.499,1659.16 338.666,1664.82 338.5,1670.5C 340.167,1670.5 341.833,1670.5 343.5,1670.5C 343.5,1674.17 343.5,1677.83 343.5,1681.5C 345.5,1681.5 347.5,1681.5 349.5,1681.5C 349.5,1685.5 349.5,1689.5 349.5,1693.5C 351.5,1693.5 353.5,1693.5 355.5,1693.5C 355.5,1697.17 355.5,1700.83 355.5,1704.5C 357.467,1704.26 359.301,1704.59 361,1705.5C 361.499,1709.15 361.665,1712.82 361.5,1716.5C 363.467,1716.26 365.301,1716.59 367,1717.5C 367.499,1721.15 367.665,1724.82 367.5,1728.5C 369.167,1728.5 370.833,1728.5 372.5,1728.5C 372.5,1732.17 372.5,1735.83 372.5,1739.5C 374.5,1739.5 376.5,1739.5 378.5,1739.5C 378.5,1743.5 378.5,1747.5 378.5,1751.5C 380.5,1751.5 382.5,1751.5 384.5,1751.5C 384.5,1755.17 384.5,1758.83 384.5,1762.5C 386.467,1762.26 388.301,1762.59 390,1763.5C 390.499,1767.15 390.665,1770.82 390.5,1774.5C 392.467,1774.26 394.301,1774.59 396,1775.5C 396.498,1778.82 396.665,1782.15 396.5,1785.5C 400.446,1785.49 402.113,1787.49 401.5,1791.5C 403.467,1791.26 405.301,1791.59 407,1792.5C 407.499,1796.15 407.665,1799.82 407.5,1803.5C 409.5,1803.5 411.5,1803.5 413.5,1803.5C 413.5,1807.17 413.5,1810.83 413.5,1814.5C 415.262,1814.36 416.929,1814.69 418.5,1815.5C 419.489,1819.11 419.823,1822.77 419.5,1826.5C 424.5,1825.5 426.5,1827.5 425.5,1832.5C 427.167,1832.5 428.833,1832.5 430.5,1832.5C 430.5,1836.17 430.5,1839.83 430.5,1843.5C 432.467,1843.26 434.301,1843.59 436,1844.5C 436.499,1848.15 436.665,1851.82 436.5,1855.5C 438.5,1855.5 440.5,1855.5 442.5,1855.5C 442.5,1857.5 442.5,1859.5 442.5,1861.5C 444.467,1861.26 446.301,1861.59 448,1862.5C 448.498,1865.82 448.665,1869.15 448.5,1872.5C 450.167,1872.5 451.833,1872.5 453.5,1872.5C 454.272,1876.45 454.605,1880.45 454.5,1884.5C 456.167,1884.5 457.833,1884.5 459.5,1884.5C 459.5,1886.5 459.5,1888.5 459.5,1890.5C 461.5,1890.5 463.5,1890.5 465.5,1890.5C 465.5,1894.17 465.5,1897.83 465.5,1901.5C 470.5,1900.5 472.5,1902.5 471.5,1907.5C 473.467,1907.26 475.301,1907.59 477,1908.5C 477.499,1912.15 477.665,1915.82 477.5,1919.5C 479.167,1919.5 480.833,1919.5 482.5,1919.5C 482.5,1921.17 482.5,1922.83 482.5,1924.5C 487.168,1923.84 489.168,1925.84 488.5,1930.5C 490.5,1930.5 492.5,1930.5 494.5,1930.5C 494.5,1934.5 494.5,1938.5 494.5,1942.5C 496.5,1942.5 498.5,1942.5 500.5,1942.5C 500.5,1944.5 500.5,1946.5 500.5,1948.5C 502.5,1948.5 504.5,1948.5 506.5,1948.5C 506.5,1952.17 506.5,1955.83 506.5,1959.5C 508.167,1959.5 509.833,1959.5 511.5,1959.5C 511.5,1961.5 511.5,1963.5 511.5,1965.5C 513.5,1965.5 515.5,1965.5 517.5,1965.5C 517.5,1967.5 517.5,1969.5 517.5,1971.5C 519.5,1971.5 521.5,1971.5 523.5,1971.5C 523.5,1973.5 523.5,1975.5 523.5,1977.5C 525.5,1977.5 527.5,1977.5 529.5,1977.5C 529.5,1981.17 529.5,1984.83 529.5,1988.5C 534.5,1987.5 536.5,1989.5 535.5,1994.5C 537.167,1994.5 538.833,1994.5 540.5,1994.5C 540.5,1996.5 540.5,1998.5 540.5,2000.5C 542.5,2000.5 544.5,2000.5 546.5,2000.5C 546.5,2002.5 546.5,2004.5 546.5,2006.5C 548.5,2006.5 550.5,2006.5 552.5,2006.5C 552.5,2008.17 552.5,2009.83 552.5,2011.5C 554.262,2011.36 555.929,2011.69 557.5,2012.5C 558.489,2016.11 558.823,2019.77 558.5,2023.5C 563.161,2022.83 565.161,2024.83 564.5,2029.5C 566.167,2029.5 567.833,2029.5 569.5,2029.5C 569.5,2031.17 569.5,2032.83 569.5,2034.5C 571.5,2034.83 573.5,2035.17 575.5,2035.5C 575.5,2037.17 575.5,2038.83 575.5,2040.5C 580.5,2039.5 582.5,2041.5 581.5,2046.5C 586.5,2045.5 588.5,2047.5 587.5,2052.5C 589.167,2052.5 590.833,2052.5 592.5,2052.5C 592.5,2054.5 592.5,2056.5 592.5,2058.5C 594.5,2058.5 596.5,2058.5 598.5,2058.5C 598.5,2060.17 598.5,2061.83 598.5,2063.5C 603.5,2062.5 605.5,2064.5 604.5,2069.5C 609.5,2068.5 611.5,2070.5 610.5,2075.5C 615.5,2074.5 617.5,2076.5 616.5,2081.5C 618.167,2081.5 619.833,2081.5 621.5,2081.5C 621.5,2083.5 621.5,2085.5 621.5,2087.5C 623.5,2087.5 625.5,2087.5 627.5,2087.5C 627.5,2089.17 627.5,2090.83 627.5,2092.5C 630.85,2092.33 634.183,2092.5 637.5,2093C 639.192,2094.4 639.859,2096.23 639.5,2098.5C 644.161,2097.83 646.161,2099.83 645.5,2104.5C 647.167,2104.5 648.833,2104.5 650.5,2104.5C 650.5,2106.5 650.5,2108.5 650.5,2110.5C 652.5,2110.5 654.5,2110.5 656.5,2110.5C 656.5,2112.5 656.5,2114.5 656.5,2116.5C 658.5,2116.5 660.5,2116.5 662.5,2116.5C 662.5,2118.17 662.5,2119.83 662.5,2121.5C 666.226,2121.18 669.893,2121.51 673.5,2122.5C 674.309,2124.07 674.643,2125.74 674.5,2127.5C 676.167,2127.5 677.833,2127.5 679.5,2127.5C 679.5,2129.5 679.5,2131.5 679.5,2133.5C 683.5,2133.5 687.5,2133.5 691.5,2133.5C 691.5,2135.5 691.5,2137.5 691.5,2139.5C 693.5,2139.5 695.5,2139.5 697.5,2139.5C 697.5,2141.5 697.5,2143.5 697.5,2145.5C 701.167,2145.5 704.833,2145.5 708.5,2145.5C 708.5,2147.17 708.5,2148.83 708.5,2150.5C 710.5,2150.5 712.5,2150.5 714.5,2150.5C 714.5,2152.5 714.5,2154.5 714.5,2156.5C 718.182,2156.33 721.848,2156.5 725.5,2157C 726.406,2158.7 726.739,2160.53 726.5,2162.5C 730.167,2162.5 733.833,2162.5 737.5,2162.5C 737.5,2164.5 737.5,2166.5 737.5,2168.5C 741.5,2168.5 745.5,2168.5 749.5,2168.5C 749.5,2170.17 749.5,2171.83 749.5,2173.5C 752.909,2173.25 756.242,2173.58 759.5,2174.5C 760.452,2176.05 760.785,2177.71 760.5,2179.5C 766.176,2179.33 771.843,2179.5 777.5,2180C 778.406,2181.7 778.739,2183.53 778.5,2185.5C 784.167,2185.5 789.833,2185.5 795.5,2185.5C 795.5,2187.5 795.5,2189.5 795.5,2191.5C 801.167,2191.5 806.833,2191.5 812.5,2191.5C 812.833,2193.5 813.167,2195.5 813.5,2197.5C 817.167,2197.5 820.833,2197.5 824.5,2197.5C 824.5,2199.17 824.5,2200.83 824.5,2202.5C 828.182,2202.33 831.848,2202.5 835.5,2203C 836.406,2204.7 836.739,2206.53 836.5,2208.5C 840.167,2208.5 843.833,2208.5 847.5,2208.5C 847.5,2210.5 847.5,2212.5 847.5,2214.5C 851.5,2214.5 855.5,2214.5 859.5,2214.5C 859.5,2216.5 859.5,2218.5 859.5,2220.5C 863.167,2220.5 866.833,2220.5 870.5,2220.5C 870.5,2222.5 870.5,2224.5 870.5,2226.5C 872.5,2226.5 874.5,2226.5 876.5,2226.5C 876.5,2228.17 876.5,2229.83 876.5,2231.5C 880.182,2231.33 883.848,2231.5 887.5,2232C 888.406,2233.7 888.739,2235.53 888.5,2237.5C 893.5,2236.5 895.5,2238.5 894.5,2243.5C 898.167,2243.5 901.833,2243.5 905.5,2243.5C 905.5,2245.5 905.5,2247.5 905.5,2249.5C 907.5,2249.5 909.5,2249.5 911.5,2249.5C 911.5,2251.5 911.5,2253.5 911.5,2255.5C 913.5,2255.5 915.5,2255.5 917.5,2255.5C 917.5,2257.17 917.5,2258.83 917.5,2260.5C 922.161,2259.83 924.161,2261.83 923.5,2266.5C 925.167,2266.5 926.833,2266.5 928.5,2266.5C 928.5,2268.5 928.5,2270.5 928.5,2272.5C 930.5,2272.5 932.5,2272.5 934.5,2272.5C 934.5,2274.5 934.5,2276.5 934.5,2278.5C 936.5,2278.5 938.5,2278.5 940.5,2278.5C 940.5,2280.5 940.5,2282.5 940.5,2284.5C 942.467,2284.26 944.301,2284.59 946,2285.5C 946.498,2288.82 946.665,2292.15 946.5,2295.5C 948.167,2295.5 949.833,2295.5 951.5,2295.5C 951.5,2297.5 951.5,2299.5 951.5,2301.5C 953.5,2301.5 955.5,2301.5 957.5,2301.5C 957.5,2305.17 957.5,2308.83 957.5,2312.5C 962.168,2311.84 964.168,2313.84 963.5,2318.5C 965.467,2318.26 967.301,2318.59 969,2319.5C 969.499,2323.15 969.665,2326.82 969.5,2330.5C 974.5,2329.5 976.5,2331.5 975.5,2336.5C 977.167,2336.5 978.833,2336.5 980.5,2336.5C 980.5,2340.17 980.5,2343.83 980.5,2347.5C 982.467,2347.26 984.301,2347.59 986,2348.5C 986.499,2352.15 986.665,2355.82 986.5,2359.5C 988.5,2359.5 990.5,2359.5 992.5,2359.5C 992.5,2365.17 992.5,2370.83 992.5,2376.5C 994.467,2376.26 996.301,2376.59 998,2377.5C 998.499,2381.15 998.665,2384.82 998.5,2388.5C 1000.47,2388.26 1002.3,2388.59 1004,2389.5C 1004.5,2394.82 1004.67,2400.16 1004.5,2405.5C 1006.17,2405.5 1007.83,2405.5 1009.5,2405.5C 1009.5,2411.17 1009.5,2416.83 1009.5,2422.5C 1011.5,2422.83 1013.5,2423.17 1015.5,2423.5C 1015.5,2429.17 1015.5,2434.83 1015.5,2440.5C 1017.5,2440.5 1019.5,2440.5 1021.5,2440.5C 1021.5,2448.17 1021.5,2455.83 1021.5,2463.5C 1023.5,2463.5 1025.5,2463.5 1027.5,2463.5C 1027.5,2471.17 1027.5,2478.83 1027.5,2486.5C 1029.77,2486.14 1031.6,2486.81 1033,2488.5C 1033.5,2497.49 1033.67,2506.49 1033.5,2515.5C 1035.17,2515.5 1036.83,2515.5 1038.5,2515.5C 1038.5,2523.17 1038.5,2530.83 1038.5,2538.5C 1040.5,2538.5 1042.5,2538.5 1044.5,2538.5C 1044.5,2548.17 1044.5,2557.83 1044.5,2567.5C 1046.5,2567.5 1048.5,2567.5 1050.5,2567.5C 1050.5,2577.17 1050.5,2586.83 1050.5,2596.5C 1052.47,2596.26 1054.3,2596.59 1056,2597.5C 1056.5,2608.83 1056.67,2620.16 1056.5,2631.5C 1058.17,2631.5 1059.83,2631.5 1061.5,2631.5C 1061.5,2641.17 1061.5,2650.83 1061.5,2660.5C 1063.5,2660.5 1065.5,2660.5 1067.5,2660.5C 1067.5,2670.17 1067.5,2679.83 1067.5,2689.5C 1069.5,2689.5 1071.5,2689.5 1073.5,2689.5C 1073.5,2697.17 1073.5,2704.83 1073.5,2712.5C 1075.5,2712.5 1077.5,2712.5 1079.5,2712.5C 1079.5,2722.17 1079.5,2731.83 1079.5,2741.5C 1081.47,2741.26 1083.3,2741.59 1085,2742.5C 1085.5,2749.83 1085.67,2757.16 1085.5,2764.5C 1087.17,2764.5 1088.83,2764.5 1090.5,2764.5C 1090.5,2772.17 1090.5,2779.83 1090.5,2787.5C 1092.5,2787.5 1094.5,2787.5 1096.5,2787.5C 1096.5,2795.17 1096.5,2802.83 1096.5,2810.5C 1098.26,2810.36 1099.93,2810.69 1101.5,2811.5C 1102.5,2817.13 1102.83,2822.79 1102.5,2828.5C 1104.47,2828.26 1106.3,2828.59 1108,2829.5C 1108.5,2836.83 1108.67,2844.16 1108.5,2851.5C 1110.47,2851.26 1112.3,2851.59 1114,2852.5C 1114.5,2857.82 1114.67,2863.16 1114.5,2868.5C 1116.17,2868.5 1117.83,2868.5 1119.5,2868.5C 1119.5,2874.5 1119.5,2880.5 1119.5,2886.5C 1121.5,2886.5 1123.5,2886.5 1125.5,2886.5C 1125.5,2892.17 1125.5,2897.83 1125.5,2903.5C 1127.5,2903.5 1129.5,2903.5 1131.5,2903.5C 1131.5,2909.17 1131.5,2914.83 1131.5,2920.5C 1133.5,2920.83 1135.5,2921.17 1137.5,2921.5C 1137.5,2925.17 1137.5,2928.83 1137.5,2932.5C 1139.17,2932.5 1140.83,2932.5 1142.5,2932.5C 1143.35,2938.12 1143.69,2943.79 1143.5,2949.5C 1145.14,2949.29 1146.64,2949.62 1148,2950.5C 1148.5,2954.15 1148.67,2957.82 1148.5,2961.5C 1150.5,2961.5 1152.5,2961.5 1154.5,2961.5C 1154.5,2967.17 1154.5,2972.83 1154.5,2978.5C 1156.47,2978.26 1158.3,2978.59 1160,2979.5C 1160.5,2983.15 1160.67,2986.82 1160.5,2990.5C 1162.47,2990.26 1164.3,2990.59 1166,2991.5C 1166.5,2995.15 1166.67,2998.82 1166.5,3002.5C 1168.17,3002.5 1169.83,3002.5 1171.5,3002.5C 1171.91,3008.16 1172.24,3013.83 1172.5,3019.5C 1174.17,3019.5 1175.83,3019.5 1177.5,3019.5C 1177.5,3023.5 1177.5,3027.5 1177.5,3031.5C 1179.5,3031.5 1181.5,3031.5 1183.5,3031.5C 1183.5,3035.17 1183.5,3038.83 1183.5,3042.5C 1185.5,3042.5 1187.5,3042.5 1189.5,3042.5C 1189.5,3046.5 1189.5,3050.5 1189.5,3054.5C 1191.5,3054.5 1193.5,3054.5 1195.5,3054.5C 1195.5,3058.17 1195.5,3061.83 1195.5,3065.5C 1197.17,3065.5 1198.83,3065.5 1200.5,3065.5C 1200.5,3069.5 1200.5,3073.5 1200.5,3077.5C 1202.5,3077.5 1204.5,3077.5 1206.5,3077.5C 1206.5,3079.5 1206.5,3081.5 1206.5,3083.5C 1208.5,3083.5 1210.5,3083.5 1212.5,3083.5C 1212.5,3087.17 1212.5,3090.83 1212.5,3094.5C 1214.47,3094.26 1216.3,3094.59 1218,3095.5C 1218.5,3099.15 1218.67,3102.82 1218.5,3106.5C 1220.47,3106.26 1222.3,3106.59 1224,3107.5C 1224.5,3110.82 1224.67,3114.15 1224.5,3117.5C 1226.17,3117.5 1227.83,3117.5 1229.5,3117.5C 1229.5,3119.5 1229.5,3121.5 1229.5,3123.5C 1231.5,3123.5 1233.5,3123.5 1235.5,3123.5C 1235.5,3127.5 1235.5,3131.5 1235.5,3135.5C 1237.5,3135.5 1239.5,3135.5 1241.5,3135.5C 1241.5,3139.17 1241.5,3142.83 1241.5,3146.5C 1246.5,3145.5 1248.5,3147.5 1247.5,3152.5C 1249.47,3152.26 1251.3,3152.59 1253,3153.5C 1253.5,3157.15 1253.67,3160.82 1253.5,3164.5C 1255.17,3164.5 1256.83,3164.5 1258.5,3164.5C 1258.5,3166.17 1258.5,3167.83 1258.5,3169.5C 1260.5,3169.83 1262.5,3170.17 1264.5,3170.5C 1264.5,3174.17 1264.5,3177.83 1264.5,3181.5C 1266.5,3181.5 1268.5,3181.5 1270.5,3181.5C 1270.5,3183.5 1270.5,3185.5 1270.5,3187.5C 1272.5,3187.5 1274.5,3187.5 1276.5,3187.5C 1276.5,3191.17 1276.5,3194.83 1276.5,3198.5C 1280.7,3198.19 1282.7,3200.19 1282.5,3204.5C 1284.17,3204.5 1285.83,3204.5 1287.5,3204.5C 1287.5,3208.5 1287.5,3212.5 1287.5,3216.5C 1289.5,3216.5 1291.5,3216.5 1293.5,3216.5C 1293.5,3218.5 1293.5,3220.5 1293.5,3222.5C 1295.5,3222.5 1297.5,3222.5 1299.5,3222.5C 1299.5,3224.17 1299.5,3225.83 1299.5,3227.5C 1301.47,3227.26 1303.3,3227.59 1305,3228.5C 1305.5,3232.15 1305.67,3235.82 1305.5,3239.5C 1307.17,3239.5 1308.83,3239.5 1310.5,3239.5C 1310.5,3241.5 1310.5,3243.5 1310.5,3245.5C 1312.5,3245.5 1314.5,3245.5 1316.5,3245.5C 1316.5,3247.5 1316.5,3249.5 1316.5,3251.5C 1318.5,3251.5 1320.5,3251.5 1322.5,3251.5C 1322.5,3255.17 1322.5,3258.83 1322.5,3262.5C 1324.5,3262.5 1326.5,3262.5 1328.5,3262.5C 1328.5,3264.5 1328.5,3266.5 1328.5,3268.5C 1333.5,3267.5 1335.5,3269.5 1334.5,3274.5C 1336.17,3274.5 1337.83,3274.5 1339.5,3274.5C 1339.5,3276.5 1339.5,3278.5 1339.5,3280.5C 1341.5,3280.5 1343.5,3280.5 1345.5,3280.5C 1345.5,3282.17 1345.5,3283.83 1345.5,3285.5C 1347.47,3285.26 1349.3,3285.59 1351,3286.5C 1351.5,3290.15 1351.67,3293.82 1351.5,3297.5C 1353.5,3297.5 1355.5,3297.5 1357.5,3297.5C 1357.5,3299.5 1357.5,3301.5 1357.5,3303.5C 1361.94,3302.43 1363.94,3304.09 1363.5,3308.5C 1367.45,3308.49 1369.11,3310.49 1368.5,3314.5C 1370.5,3314.5 1372.5,3314.5 1374.5,3314.5C 1374.5,3316.5 1374.5,3318.5 1374.5,3320.5C 1376.5,3320.5 1378.5,3320.5 1380.5,3320.5C 1380.5,3322.5 1380.5,3324.5 1380.5,3326.5C 1382.5,3326.5 1384.5,3326.5 1386.5,3326.5C 1386.5,3328.5 1386.5,3330.5 1386.5,3332.5C 1390.51,3331.89 1392.51,3333.55 1392.5,3337.5C 1396.91,3337.06 1398.57,3339.06 1397.5,3343.5C 1399.5,3343.5 1401.5,3343.5 1403.5,3343.5C 1403.5,3345.5 1403.5,3347.5 1403.5,3349.5C 1405.5,3349.5 1407.5,3349.5 1409.5,3349.5C 1409.5,3351.5 1409.5,3353.5 1409.5,3355.5C 1411.5,3355.5 1413.5,3355.5 1415.5,3355.5C 1415.5,3357.5 1415.5,3359.5 1415.5,3361.5C 1417.17,3361.5 1418.83,3361.5 1420.5,3361.5C 1420.5,3363.17 1420.5,3364.83 1420.5,3366.5C 1425.5,3365.5 1427.5,3367.5 1426.5,3372.5C 1428.5,3372.5 1430.5,3372.5 1432.5,3372.5C 1432.5,3374.5 1432.5,3376.5 1432.5,3378.5C 1434.5,3378.5 1436.5,3378.5 1438.5,3378.5C 1438.5,3380.5 1438.5,3382.5 1438.5,3384.5C 1442.17,3384.5 1445.83,3384.5 1449.5,3384.5C 1449.5,3386.5 1449.5,3388.5 1449.5,3390.5C 1451.5,3390.5 1453.5,3390.5 1455.5,3390.5C 1455.5,3392.17 1455.5,3393.83 1455.5,3395.5C 1460.5,3394.5 1462.5,3396.5 1461.5,3401.5C 1465.23,3401.18 1468.89,3401.51 1472.5,3402.5C 1473.31,3404.07 1473.64,3405.74 1473.5,3407.5C 1475.17,3407.5 1476.83,3407.5 1478.5,3407.5C 1478.5,3409.5 1478.5,3411.5 1478.5,3413.5C 1480.5,3413.5 1482.5,3413.5 1484.5,3413.5C 1484.5,3415.17 1484.5,3416.83 1484.5,3418.5C 1488.55,3418.39 1492.55,3418.73 1496.5,3419.5C 1496.5,3421.17 1496.5,3422.83 1496.5,3424.5C 1500.17,3424.5 1503.83,3424.5 1507.5,3424.5C 1507.5,3426.5 1507.5,3428.5 1507.5,3430.5C 1511.5,3430.5 1515.5,3430.5 1519.5,3430.5C 1519.5,3432.5 1519.5,3434.5 1519.5,3436.5C 1523.17,3436.5 1526.83,3436.5 1530.5,3436.5C 1530.83,3438.5 1531.17,3440.5 1531.5,3442.5C 1535.17,3442.5 1538.83,3442.5 1542.5,3442.5C 1542.5,3444.17 1542.5,3445.83 1542.5,3447.5C 1547.84,3447.33 1553.18,3447.5 1558.5,3448C 1559.41,3449.7 1559.74,3451.53 1559.5,3453.5C 1565.18,3453.33 1570.84,3453.5 1576.5,3454C 1577.41,3455.7 1577.74,3457.53 1577.5,3459.5C 1590.83,3459.5 1604.17,3459.5 1617.5,3459.5C 1617.5,3461.5 1617.5,3463.5 1617.5,3465.5C 1629.17,3465.5 1640.83,3465.5 1652.5,3465.5C 1652.5,3463.5 1652.5,3461.5 1652.5,3459.5C 1666.17,3459.5 1679.83,3459.5 1693.5,3459.5C 1693.5,3457.5 1693.5,3455.5 1693.5,3453.5C 1701.17,3453.5 1708.83,3453.5 1716.5,3453.5C 1716.26,3451.53 1716.59,3449.7 1717.5,3448C 1722.82,3447.5 1728.16,3447.33 1733.5,3447.5C 1733.5,3445.83 1733.5,3444.17 1733.5,3442.5C 1739.5,3442.5 1745.5,3442.5 1751.5,3442.5C 1751.5,3440.5 1751.5,3438.5 1751.5,3436.5C 1757.17,3436.5 1762.83,3436.5 1768.5,3436.5C 1768.5,3434.5 1768.5,3432.5 1768.5,3430.5C 1774.17,3430.5 1779.83,3430.5 1785.5,3430.5C 1785.36,3428.74 1785.69,3427.07 1786.5,3425.5C 1794.14,3424.5 1801.8,3424.17 1809.5,3424.5C 1809.14,3422.23 1809.81,3420.4 1811.5,3419C 1818.49,3418.5 1825.49,3418.33 1832.5,3418.5C 1832.5,3416.83 1832.5,3415.17 1832.5,3413.5C 1861.17,3413.5 1889.83,3413.5 1918.5,3413.5C 1918.5,3415.17 1918.5,3416.83 1918.5,3418.5C 1924.55,3418.3 1930.55,3418.64 1936.5,3419.5C 1936.5,3421.17 1936.5,3422.83 1936.5,3424.5C 1940.17,3424.5 1943.83,3424.5 1947.5,3424.5C 1947.5,3426.5 1947.5,3428.5 1947.5,3430.5C 1951.5,3430.5 1955.5,3430.5 1959.5,3430.5C 1959.5,3432.5 1959.5,3434.5 1959.5,3436.5C 1961.5,3436.5 1963.5,3436.5 1965.5,3436.5C 1965.5,3438.5 1965.5,3440.5 1965.5,3442.5C 1969.94,3441.43 1971.94,3443.09 1971.5,3447.5C 1975.91,3447.06 1977.57,3449.06 1976.5,3453.5C 1978.5,3453.5 1980.5,3453.5 1982.5,3453.5C 1982.5,3455.5 1982.5,3457.5 1982.5,3459.5C 1984.5,3459.5 1986.5,3459.5 1988.5,3459.5C 1988.5,3461.5 1988.5,3463.5 1988.5,3465.5C 1990.5,3465.5 1992.5,3465.5 1994.5,3465.5C 1994.5,3469.17 1994.5,3472.83 1994.5,3476.5C 1996.17,3476.5 1997.83,3476.5 1999.5,3476.5C 1999.83,3478.5 2000.17,3480.5 2000.5,3482.5C 2002.17,3482.5 2003.83,3482.5 2005.5,3482.5C 2005.5,3486.5 2005.5,3490.5 2005.5,3494.5C 2007.5,3494.5 2009.5,3494.5 2011.5,3494.5C 2011.5,3498.17 2011.5,3501.83 2011.5,3505.5C 2016.5,3504.5 2018.5,3506.5 2017.5,3511.5C 2019.47,3511.26 2021.3,3511.59 2023,3512.5C 2023.5,3516.15 2023.67,3519.82 2023.5,3523.5C 2025.17,3523.5 2026.83,3523.5 2028.5,3523.5C 2028.5,3525.5 2028.5,3527.5 2028.5,3529.5C 2030.5,3529.5 2032.5,3529.5 2034.5,3529.5C 2034.5,3533.17 2034.5,3536.83 2034.5,3540.5C 2036.5,3540.5 2038.5,3540.5 2040.5,3540.5C 2040.5,3542.5 2040.5,3544.5 2040.5,3546.5C 2042.5,3546.5 2044.5,3546.5 2046.5,3546.5C 2046.5,3550.17 2046.5,3553.83 2046.5,3557.5C 2051.17,3556.84 2053.17,3558.84 2052.5,3563.5C 2054.17,3563.5 2055.83,3563.5 2057.5,3563.5C 2057.5,3567.5 2057.5,3571.5 2057.5,3575.5C 2059.5,3575.5 2061.5,3575.5 2063.5,3575.5C 2063.5,3577.5 2063.5,3579.5 2063.5,3581.5C 2065.5,3581.5 2067.5,3581.5 2069.5,3581.5C 2069.5,3583.17 2069.5,3584.83 2069.5,3586.5C 2074.5,3585.5 2076.5,3587.5 2075.5,3592.5C 2080.5,3591.5 2082.5,3593.5 2081.5,3598.5C 2083.17,3598.5 2084.83,3598.5 2086.5,3598.5C 2086.5,3600.5 2086.5,3602.5 2086.5,3604.5C 2088.5,3604.5 2090.5,3604.5 2092.5,3604.5C 2092.5,3606.5 2092.5,3608.5 2092.5,3610.5C 2094.5,3610.5 2096.5,3610.5 2098.5,3610.5C 2098.5,3612.17 2098.5,3613.83 2098.5,3615.5C 2103.5,3614.5 2105.5,3616.5 2104.5,3621.5C 2109.16,3620.83 2111.16,3622.83 2110.5,3627.5C 2112.17,3627.5 2113.83,3627.5 2115.5,3627.5C 2115.5,3629.5 2115.5,3631.5 2115.5,3633.5C 2119.5,3633.5 2123.5,3633.5 2127.5,3633.5C 2127.5,3635.5 2127.5,3637.5 2127.5,3639.5C 2131.17,3639.5 2134.83,3639.5 2138.5,3639.5C 2138.5,3641.17 2138.5,3642.83 2138.5,3644.5C 2140.5,3644.5 2142.5,3644.5 2144.5,3644.5C 2144.5,3646.5 2144.5,3648.5 2144.5,3650.5C 2148.5,3650.5 2152.5,3650.5 2156.5,3650.5C 2156.5,3652.5 2156.5,3654.5 2156.5,3656.5C 2162.17,3656.5 2167.83,3656.5 2173.5,3656.5C 2173.5,3658.5 2173.5,3660.5 2173.5,3662.5C 2181.17,3662.5 2188.83,3662.5 2196.5,3662.5C 2196.5,3664.17 2196.5,3665.83 2196.5,3667.5C 2225.5,3667.5 2254.5,3667.5 2283.5,3667.5C 2283.29,3665.86 2283.62,3664.36 2284.5,3663C 2293.83,3662.5 2303.16,3662.33 2312.5,3662.5C 2312.5,3660.5 2312.5,3658.5 2312.5,3656.5C 2322.17,3656.5 2331.83,3656.5 2341.5,3656.5C 2341.26,3654.53 2341.59,3652.7 2342.5,3651C 2348.16,3650.5 2353.82,3650.33 2359.5,3650.5C 2359.5,3648.5 2359.5,3646.5 2359.5,3644.5C 2367.17,3644.5 2374.83,3644.5 2382.5,3644.5C 2382.5,3642.83 2382.5,3641.17 2382.5,3639.5C 2388.17,3639.5 2393.83,3639.5 2399.5,3639.5C 2399.5,3637.5 2399.5,3635.5 2399.5,3633.5C 2405.5,3633.5 2411.5,3633.5 2417.5,3633.5C 2417.5,3631.5 2417.5,3629.5 2417.5,3627.5C 2423.17,3627.5 2428.83,3627.5 2434.5,3627.5C 2434.26,3625.53 2434.59,3623.7 2435.5,3622C 2440.82,3621.5 2446.16,3621.33 2451.5,3621.5C 2451.14,3619.23 2451.81,3617.4 2453.5,3616C 2458.82,3615.5 2464.16,3615.33 2469.5,3615.5C 2469.5,3613.83 2469.5,3612.17 2469.5,3610.5C 2475.17,3610.5 2480.83,3610.5 2486.5,3610.5C 2486.5,3608.5 2486.5,3606.5 2486.5,3604.5C 2492.17,3604.5 2497.83,3604.5 2503.5,3604.5C 2503.26,3602.53 2503.59,3600.7 2504.5,3599C 2510.16,3598.5 2515.82,3598.33 2521.5,3598.5C 2521.5,3596.5 2521.5,3594.5 2521.5,3592.5C 2527.17,3592.5 2532.83,3592.5 2538.5,3592.5C 2538.26,3590.53 2538.59,3588.7 2539.5,3587C 2544.82,3586.5 2550.16,3586.33 2555.5,3586.5C 2555.29,3584.86 2555.62,3583.36 2556.5,3582C 2562.16,3581.5 2567.82,3581.33 2573.5,3581.5C 2573.5,3579.5 2573.5,3577.5 2573.5,3575.5C 2581.17,3575.5 2588.83,3575.5 2596.5,3575.5C 2596.5,3573.5 2596.5,3571.5 2596.5,3569.5C 2602.17,3569.5 2607.83,3569.5 2613.5,3569.5C 2613.26,3567.53 2613.59,3565.7 2614.5,3564C 2623.83,3563.5 2633.16,3563.33 2642.5,3563.5C 2642.14,3561.23 2642.81,3559.4 2644.5,3558C 2666.5,3557.33 2688.5,3557.33 2710.5,3558C 2712.19,3559.4 2712.86,3561.23 2712.5,3563.5C 2716.17,3563.5 2719.83,3563.5 2723.5,3563.5C 2723.5,3565.5 2723.5,3567.5 2723.5,3569.5C 2725.5,3569.5 2727.5,3569.5 2729.5,3569.5C 2729.5,3571.5 2729.5,3573.5 2729.5,3575.5C 2731.5,3575.5 2733.5,3575.5 2735.5,3575.5C 2735.5,3579.17 2735.5,3582.83 2735.5,3586.5C 2737.47,3586.26 2739.3,3586.59 2741,3587.5C 2741.5,3591.15 2741.67,3594.82 2741.5,3598.5C 2743.17,3598.5 2744.83,3598.5 2746.5,3598.5C 2746.5,3602.5 2746.5,3606.5 2746.5,3610.5C 2748.5,3610.5 2750.5,3610.5 2752.5,3610.5C 2752.5,3616.17 2752.5,3621.83 2752.5,3627.5C 2754.5,3627.5 2756.5,3627.5 2758.5,3627.5C 2758.5,3633.17 2758.5,3638.83 2758.5,3644.5C 2760.47,3644.26 2762.3,3644.59 2764,3645.5C 2764.5,3652.83 2764.67,3660.16 2764.5,3667.5C 2766.5,3667.83 2768.5,3668.17 2770.5,3668.5C 2770.5,3676.17 2770.5,3683.83 2770.5,3691.5C 2772.17,3691.5 2773.83,3691.5 2775.5,3691.5C 2775.5,3701.17 2775.5,3710.83 2775.5,3720.5C 2777.5,3720.5 2779.5,3720.5 2781.5,3720.5C 2781.5,3730.17 2781.5,3739.83 2781.5,3749.5C 2783.5,3749.5 2785.5,3749.5 2787.5,3749.5C 2787.5,3760.83 2787.5,3772.17 2787.5,3783.5C 2789.47,3783.26 2791.3,3783.59 2793,3784.5C 2793.5,3795.83 2793.67,3807.16 2793.5,3818.5C 2795.47,3818.26 2797.3,3818.59 2799,3819.5C 2799.5,3832.83 2799.67,3846.16 2799.5,3859.5C 2801.17,3859.5 2802.83,3859.5 2804.5,3859.5C 2804.5,3872.83 2804.5,3886.17 2804.5,3899.5C 2806.5,3899.5 2808.5,3899.5 2810.5,3899.5C 2810.5,3916.83 2810.5,3934.17 2810.5,3951.5C 2812.5,3951.5 2814.5,3951.5 2816.5,3951.5C 2816.5,3968.83 2816.5,3986.17 2816.5,4003.5C 2818.62,4003.33 2820.62,4003.66 2822.5,4004.5C 2821.91,4007.13 2821.58,4009.79 2821.5,4012.5C 2821.17,4012.5 2820.83,4012.5 2820.5,4012.5C 2820.5,4010.17 2820.5,4007.83 2820.5,4005.5C 2818.5,4005.5 2816.5,4005.5 2814.5,4005.5C 2814.67,3988.5 2814.5,3971.5 2814,3954.5C 2812.64,3953.62 2811.14,3953.29 2809.5,3953.5C 2809.67,3936.5 2809.5,3919.5 2809,3902.5C 2807.3,3901.59 2805.47,3901.26 2803.5,3901.5C 2803.67,3888.5 2803.5,3875.5 2803,3862.5C 2801.56,3860.84 2799.72,3860.18 2797.5,3860.5C 2797.67,3847.5 2797.5,3834.5 2797,3821.5C 2795.3,3820.59 2793.47,3820.26 2791.5,3820.5C 2791.67,3809.16 2791.5,3797.83 2791,3786.5C 2789.3,3785.59 2787.47,3785.26 2785.5,3785.5C 2785.5,3773.83 2785.5,3762.17 2785.5,3750.5C 2783.83,3750.5 2782.17,3750.5 2780.5,3750.5C 2780.67,3741.83 2780.5,3733.16 2780,3724.5C 2779.07,3721.96 2777.24,3720.96 2774.5,3721.5C 2774.67,3712.49 2774.5,3703.49 2774,3694.5C 2772.56,3692.84 2770.72,3692.18 2768.5,3692.5C 2768.5,3684.83 2768.5,3677.17 2768.5,3669.5C 2766.5,3669.5 2764.5,3669.5 2762.5,3669.5C 2762.67,3662.16 2762.5,3654.83 2762,3647.5C 2760.64,3646.62 2759.14,3646.29 2757.5,3646.5C 2757.67,3641.49 2757.5,3636.49 2757,3631.5C 2755.74,3629.39 2753.9,3628.39 2751.5,3628.5C 2751.67,3623.49 2751.5,3618.49 2751,3613.5C 2749.56,3611.84 2747.72,3611.18 2745.5,3611.5C 2745.5,3607.83 2745.5,3604.17 2745.5,3600.5C 2743.5,3600.17 2741.5,3599.83 2739.5,3599.5C 2739.5,3595.83 2739.5,3592.17 2739.5,3588.5C 2737.5,3588.5 2735.5,3588.5 2733.5,3588.5C 2733.67,3585.15 2733.5,3581.82 2733,3578.5C 2731.89,3576.96 2730.39,3576.3 2728.5,3576.5C 2728.35,3572.69 2726.35,3571.02 2722.5,3571.5C 2722.5,3569.5 2722.5,3567.5 2722.5,3565.5C 2718.5,3565.5 2714.5,3565.5 2710.5,3565.5C 2710.5,3563.5 2710.5,3561.5 2710.5,3559.5C 2688.5,3559.5 2666.5,3559.5 2644.5,3559.5C 2644.5,3561.5 2644.5,3563.5 2644.5,3565.5C 2634.83,3565.5 2625.17,3565.5 2615.5,3565.5C 2615.5,3567.5 2615.5,3569.5 2615.5,3571.5C 2610.16,3571.33 2604.82,3571.5 2599.5,3572C 2597.96,3573.11 2597.3,3574.61 2597.5,3576.5C 2590.49,3576.33 2583.49,3576.5 2576.5,3577C 2574.84,3578.44 2574.18,3580.28 2574.5,3582.5C 2568.83,3582.5 2563.17,3582.5 2557.5,3582.5C 2557.5,3584.5 2557.5,3586.5 2557.5,3588.5C 2552.16,3588.33 2546.82,3588.5 2541.5,3589C 2540.59,3590.7 2540.26,3592.53 2540.5,3594.5C 2534.5,3594.5 2528.5,3594.5 2522.5,3594.5C 2522.5,3596.17 2522.5,3597.83 2522.5,3599.5C 2517.49,3599.33 2512.49,3599.5 2507.5,3600C 2505.81,3601.4 2505.14,3603.23 2505.5,3605.5C 2500.16,3605.33 2494.82,3605.5 2489.5,3606C 2487.84,3607.44 2487.18,3609.28 2487.5,3611.5C 2482.16,3611.33 2476.82,3611.5 2471.5,3612C 2470.59,3613.7 2470.26,3615.53 2470.5,3617.5C 2464.83,3617.5 2459.17,3617.5 2453.5,3617.5C 2453.5,3619.5 2453.5,3621.5 2453.5,3623.5C 2447.82,3623.33 2442.16,3623.5 2436.5,3624C 2435.62,3625.36 2435.29,3626.86 2435.5,3628.5C 2430.49,3628.33 2425.49,3628.5 2420.5,3629C 2418.81,3630.4 2418.14,3632.23 2418.5,3634.5C 2412.83,3634.5 2407.17,3634.5 2401.5,3634.5C 2401.5,3636.5 2401.5,3638.5 2401.5,3640.5C 2396.16,3640.33 2390.82,3640.5 2385.5,3641C 2383.84,3642.44 2383.18,3644.28 2383.5,3646.5C 2375.83,3646.5 2368.17,3646.5 2360.5,3646.5C 2360.5,3648.5 2360.5,3650.5 2360.5,3652.5C 2355.16,3652.33 2349.82,3652.5 2344.5,3653C 2343.62,3654.36 2343.29,3655.86 2343.5,3657.5C 2334.49,3657.33 2325.49,3657.5 2316.5,3658C 2314.84,3659.44 2314.18,3661.28 2314.5,3663.5C 2304.83,3663.5 2295.17,3663.5 2285.5,3663.5C 2285.5,3665.5 2285.5,3667.5 2285.5,3669.5C 2255.5,3669.5 2225.5,3669.5 2195.5,3669.5C 2195.82,3667.28 2195.16,3665.44 2193.5,3664C 2186.51,3663.5 2179.51,3663.33 2172.5,3663.5C 2172.61,3661.1 2171.61,3659.26 2169.5,3658C 2164.51,3657.5 2159.51,3657.33 2154.5,3657.5C 2154.71,3655.86 2154.38,3654.36 2153.5,3653C 2150.18,3652.5 2146.85,3652.33 2143.5,3652.5C 2143.5,3650.5 2143.5,3648.5 2143.5,3646.5C 2141.5,3646.5 2139.5,3646.5 2137.5,3646.5C 2137.74,3644.53 2137.41,3642.7 2136.5,3641C 2132.85,3640.5 2129.18,3640.33 2125.5,3640.5C 2125.5,3638.5 2125.5,3636.5 2125.5,3634.5C 2121.83,3634.5 2118.17,3634.5 2114.5,3634.5C 2114.5,3632.83 2114.5,3631.17 2114.5,3629.5C 2112.5,3629.17 2110.5,3628.83 2108.5,3628.5C 2108.5,3626.83 2108.5,3625.17 2108.5,3623.5C 2106.5,3623.5 2104.5,3623.5 2102.5,3623.5C 2102.5,3621.5 2102.5,3619.5 2102.5,3617.5C 2100.5,3617.5 2098.5,3617.5 2096.5,3617.5C 2096.5,3615.5 2096.5,3613.5 2096.5,3611.5C 2094.83,3611.5 2093.17,3611.5 2091.5,3611.5C 2091.17,3607.83 2089.17,3605.83 2085.5,3605.5C 2085.5,3603.83 2085.5,3602.17 2085.5,3600.5C 2083.5,3600.17 2081.5,3599.83 2079.5,3599.5C 2079.5,3597.83 2079.5,3596.17 2079.5,3594.5C 2077.5,3594.5 2075.5,3594.5 2073.5,3594.5C 2073.5,3592.5 2073.5,3590.5 2073.5,3588.5C 2071.83,3588.5 2070.17,3588.5 2068.5,3588.5C 2068.17,3586.5 2067.83,3584.5 2067.5,3582.5C 2065.83,3582.5 2064.17,3582.5 2062.5,3582.5C 2062.17,3578.83 2060.17,3576.83 2056.5,3576.5C 2056.5,3572.83 2056.5,3569.17 2056.5,3565.5C 2054.5,3565.5 2052.5,3565.5 2050.5,3565.5C 2050.5,3563.5 2050.5,3561.5 2050.5,3559.5C 2048.5,3559.5 2046.5,3559.5 2044.5,3559.5C 2044.67,3556.15 2044.5,3552.82 2044,3549.5C 2042.89,3547.96 2041.39,3547.3 2039.5,3547.5C 2039.35,3543.69 2037.35,3542.02 2033.5,3542.5C 2033.5,3538.5 2033.5,3534.5 2033.5,3530.5C 2031.5,3530.5 2029.5,3530.5 2027.5,3530.5C 2027.83,3526.17 2025.83,3524.17 2021.5,3524.5C 2021.67,3521.15 2021.5,3517.82 2021,3514.5C 2019.3,3513.59 2017.47,3513.26 2015.5,3513.5C 2016.57,3509.06 2014.91,3507.06 2010.5,3507.5C 2010.61,3503.45 2010.27,3499.45 2009.5,3495.5C 2007.83,3495.5 2006.17,3495.5 2004.5,3495.5C 2004.5,3491.83 2004.5,3488.17 2004.5,3484.5C 2002.5,3484.5 2000.5,3484.5 1998.5,3484.5C 1998.5,3482.5 1998.5,3480.5 1998.5,3478.5C 1996.5,3478.5 1994.5,3478.5 1992.5,3478.5C 1992.67,3475.15 1992.5,3471.82 1992,3468.5C 1990.56,3466.84 1988.72,3466.18 1986.5,3466.5C 1987.17,3462.5 1985.5,3460.83 1981.5,3461.5C 1981.83,3457.17 1979.83,3455.17 1975.5,3455.5C 1975.5,3453.5 1975.5,3451.5 1975.5,3449.5C 1973.5,3449.5 1971.5,3449.5 1969.5,3449.5C 1969.5,3447.5 1969.5,3445.5 1969.5,3443.5C 1967.5,3443.5 1965.5,3443.5 1963.5,3443.5C 1963.83,3439.17 1961.83,3437.17 1957.5,3437.5C 1957.71,3435.86 1957.38,3434.36 1956.5,3433C 1953.18,3432.5 1949.85,3432.33 1946.5,3432.5C 1946.5,3430.5 1946.5,3428.5 1946.5,3426.5C 1942.5,3426.5 1938.5,3426.5 1934.5,3426.5C 1934.5,3424.5 1934.5,3422.5 1934.5,3420.5C 1928.83,3420.5 1923.17,3420.5 1917.5,3420.5C 1917.82,3418.28 1917.16,3416.44 1915.5,3415C 1888.83,3414.33 1862.17,3414.33 1835.5,3415C 1833.84,3416.44 1833.18,3418.28 1833.5,3420.5C 1825.83,3420.5 1818.17,3420.5 1810.5,3420.5C 1810.5,3422.5 1810.5,3424.5 1810.5,3426.5C 1802.83,3426.5 1795.17,3426.5 1787.5,3426.5C 1787.5,3428.5 1787.5,3430.5 1787.5,3432.5C 1782.16,3432.33 1776.82,3432.5 1771.5,3433C 1769.96,3434.11 1769.3,3435.61 1769.5,3437.5C 1764.82,3437.33 1760.15,3437.5 1755.5,3438C 1752.96,3438.93 1751.96,3440.76 1752.5,3443.5C 1746.83,3443.5 1741.17,3443.5 1735.5,3443.5C 1735.5,3445.5 1735.5,3447.5 1735.5,3449.5C 1730.16,3449.33 1724.82,3449.5 1719.5,3450C 1717.84,3451.44 1717.18,3453.28 1717.5,3455.5C 1709.83,3455.5 1702.17,3455.5 1694.5,3455.5C 1694.5,3457.5 1694.5,3459.5 1694.5,3461.5C 1681.5,3461.33 1668.5,3461.5 1655.5,3462C 1654.62,3463.36 1654.29,3464.86 1654.5,3466.5C 1641.83,3466.5 1629.17,3466.5 1616.5,3466.5C 1616.5,3464.83 1616.5,3463.17 1616.5,3461.5C 1602.83,3461.5 1589.17,3461.5 1575.5,3461.5C 1575.74,3459.53 1575.41,3457.7 1574.5,3456C 1569.18,3455.5 1563.84,3455.33 1558.5,3455.5C 1558.5,3453.5 1558.5,3451.5 1558.5,3449.5C 1552.83,3449.5 1547.17,3449.5 1541.5,3449.5C 1541.17,3447.5 1540.83,3445.5 1540.5,3443.5C 1536.83,3443.5 1533.17,3443.5 1529.5,3443.5C 1529.71,3441.86 1529.38,3440.36 1528.5,3439C 1524.97,3437.66 1521.31,3437.16 1517.5,3437.5C 1517.71,3435.86 1517.38,3434.36 1516.5,3433C 1513.18,3432.5 1509.85,3432.33 1506.5,3432.5C 1506.5,3430.5 1506.5,3428.5 1506.5,3426.5C 1502.5,3426.5 1498.5,3426.5 1494.5,3426.5C 1494.5,3424.5 1494.5,3422.5 1494.5,3420.5C 1490.83,3420.5 1487.17,3420.5 1483.5,3420.5C 1483.17,3418.5 1482.83,3416.5 1482.5,3414.5C 1480.83,3414.5 1479.17,3414.5 1477.5,3414.5C 1477.5,3412.83 1477.5,3411.17 1477.5,3409.5C 1475.5,3409.17 1473.5,3408.83 1471.5,3408.5C 1471.5,3406.83 1471.5,3405.17 1471.5,3403.5C 1467.83,3403.5 1464.17,3403.5 1460.5,3403.5C 1460.7,3399.19 1458.7,3397.19 1454.5,3397.5C 1454.83,3393.17 1452.83,3391.17 1448.5,3391.5C 1448.74,3389.53 1448.41,3387.7 1447.5,3386C 1443.85,3385.5 1440.18,3385.33 1436.5,3385.5C 1436.98,3381.65 1435.31,3379.65 1431.5,3379.5C 1431.35,3375.69 1429.35,3374.02 1425.5,3374.5C 1425.5,3372.5 1425.5,3370.5 1425.5,3368.5C 1423.5,3368.5 1421.5,3368.5 1419.5,3368.5C 1419.83,3364.17 1417.83,3362.17 1413.5,3362.5C 1413.83,3358.17 1411.83,3356.17 1407.5,3356.5C 1407.98,3352.65 1406.31,3350.65 1402.5,3350.5C 1402.35,3346.69 1400.35,3345.02 1396.5,3345.5C 1396.5,3343.5 1396.5,3341.5 1396.5,3339.5C 1394.5,3339.5 1392.5,3339.5 1390.5,3339.5C 1390.5,3337.5 1390.5,3335.5 1390.5,3333.5C 1388.5,3333.5 1386.5,3333.5 1384.5,3333.5C 1384.83,3329.17 1382.83,3327.17 1378.5,3327.5C 1379.17,3323.5 1377.5,3321.83 1373.5,3322.5C 1373.83,3318.17 1371.83,3316.17 1367.5,3316.5C 1367.5,3314.5 1367.5,3312.5 1367.5,3310.5C 1365.5,3310.5 1363.5,3310.5 1361.5,3310.5C 1361.5,3308.5 1361.5,3306.5 1361.5,3304.5C 1359.5,3304.5 1357.5,3304.5 1355.5,3304.5C 1355.98,3300.65 1354.31,3298.65 1350.5,3298.5C 1350.75,3295.09 1350.42,3291.76 1349.5,3288.5C 1347.95,3287.55 1346.29,3287.21 1344.5,3287.5C 1344.83,3283.17 1342.83,3281.17 1338.5,3281.5C 1338.83,3277.17 1336.83,3275.17 1332.5,3275.5C 1332.81,3271.3 1330.81,3269.3 1326.5,3269.5C 1327.17,3265.5 1325.5,3263.83 1321.5,3264.5C 1321.61,3260.45 1321.27,3256.45 1320.5,3252.5C 1318.83,3252.5 1317.17,3252.5 1315.5,3252.5C 1316.5,3247.5 1314.5,3245.5 1309.5,3246.5C 1309.81,3242.3 1307.81,3240.3 1303.5,3240.5C 1303.5,3236.83 1303.5,3233.17 1303.5,3229.5C 1301.5,3229.5 1299.5,3229.5 1297.5,3229.5C 1297.5,3227.5 1297.5,3225.5 1297.5,3223.5C 1295.83,3223.5 1294.17,3223.5 1292.5,3223.5C 1292.17,3219.83 1290.17,3217.83 1286.5,3217.5C 1286.5,3213.83 1286.5,3210.17 1286.5,3206.5C 1284.5,3206.5 1282.5,3206.5 1280.5,3206.5C 1280.5,3204.5 1280.5,3202.5 1280.5,3200.5C 1278.5,3200.5 1276.5,3200.5 1274.5,3200.5C 1274.67,3197.15 1274.5,3193.82 1274,3190.5C 1272.56,3188.84 1270.72,3188.18 1268.5,3188.5C 1269.17,3184.5 1267.5,3182.83 1263.5,3183.5C 1263.67,3180.15 1263.5,3176.82 1263,3173.5C 1261.56,3171.84 1259.72,3171.18 1257.5,3171.5C 1257.83,3167.17 1255.83,3165.17 1251.5,3165.5C 1251.5,3161.83 1251.5,3158.17 1251.5,3154.5C 1249.5,3154.5 1247.5,3154.5 1245.5,3154.5C 1246.5,3149.5 1244.5,3147.5 1239.5,3148.5C 1239.5,3144.5 1239.5,3140.5 1239.5,3136.5C 1237.83,3136.5 1236.17,3136.5 1234.5,3136.5C 1234.67,3133.15 1234.5,3129.82 1234,3126.5C 1232.3,3125.59 1230.47,3125.26 1228.5,3125.5C 1228.5,3123.5 1228.5,3121.5 1228.5,3119.5C 1226.5,3119.5 1224.5,3119.5 1222.5,3119.5C 1222.67,3116.15 1222.5,3112.82 1222,3109.5C 1220.56,3107.84 1218.72,3107.18 1216.5,3107.5C 1216.5,3103.83 1216.5,3100.17 1216.5,3096.5C 1214.83,3096.5 1213.17,3096.5 1211.5,3096.5C 1211.67,3093.15 1211.5,3089.82 1211,3086.5C 1209.6,3084.81 1207.77,3084.14 1205.5,3084.5C 1205.5,3082.83 1205.5,3081.17 1205.5,3079.5C 1203.5,3079.17 1201.5,3078.83 1199.5,3078.5C 1199.5,3074.83 1199.5,3071.17 1199.5,3067.5C 1197.5,3067.5 1195.5,3067.5 1193.5,3067.5C 1193.5,3063.5 1193.5,3059.5 1193.5,3055.5C 1191.5,3055.5 1189.5,3055.5 1187.5,3055.5C 1187.67,3052.15 1187.5,3048.82 1187,3045.5C 1185.64,3044.62 1184.14,3044.29 1182.5,3044.5C 1182.96,3040.42 1182.29,3036.58 1180.5,3033C 1179.21,3032.51 1177.87,3032.34 1176.5,3032.5C 1176.5,3028.83 1176.5,3025.17 1176.5,3021.5C 1174.5,3021.17 1172.5,3020.83 1170.5,3020.5C 1170.5,3014.83 1170.5,3009.17 1170.5,3003.5C 1168.5,3003.5 1166.5,3003.5 1164.5,3003.5C 1164.82,2999.77 1164.49,2996.11 1163.5,2992.5C 1161.93,2991.69 1160.26,2991.36 1158.5,2991.5C 1158.67,2988.15 1158.5,2984.82 1158,2981.5C 1156.64,2980.62 1155.14,2980.29 1153.5,2980.5C 1153.67,2975.16 1153.5,2969.82 1153,2964.5C 1151.56,2962.84 1149.72,2962.18 1147.5,2962.5C 1147.5,2958.83 1147.5,2955.17 1147.5,2951.5C 1145.5,2951.5 1143.5,2951.5 1141.5,2951.5C 1141.5,2945.83 1141.5,2940.17 1141.5,2934.5C 1139.5,2934.5 1137.5,2934.5 1135.5,2934.5C 1135.5,2930.5 1135.5,2926.5 1135.5,2922.5C 1133.5,2922.5 1131.5,2922.5 1129.5,2922.5C 1129.67,2917.16 1129.5,2911.82 1129,2906.5C 1127.64,2905.62 1126.14,2905.29 1124.5,2905.5C 1124.7,2899.45 1124.36,2893.45 1123.5,2887.5C 1121.83,2887.5 1120.17,2887.5 1118.5,2887.5C 1118.5,2881.83 1118.5,2876.17 1118.5,2870.5C 1116.5,2870.5 1114.5,2870.5 1112.5,2870.5C 1112.67,2865.16 1112.5,2859.82 1112,2854.5C 1110.42,2853.14 1108.58,2852.47 1106.5,2852.5C 1106.67,2845.16 1106.5,2837.83 1106,2830.5C 1104.64,2829.62 1103.14,2829.29 1101.5,2829.5C 1101.67,2824.82 1101.5,2820.15 1101,2815.5C 1100.07,2812.96 1098.24,2811.96 1095.5,2812.5C 1095.67,2805.49 1095.5,2798.49 1095,2791.5C 1093.56,2789.84 1091.72,2789.18 1089.5,2789.5C 1089.5,2781.83 1089.5,2774.17 1089.5,2766.5C 1087.5,2766.5 1085.5,2766.5 1083.5,2766.5C 1083.67,2759.16 1083.5,2751.83 1083,2744.5C 1081.42,2743.14 1079.58,2742.47 1077.5,2742.5C 1077.67,2733.49 1077.5,2724.49 1077,2715.5C 1075.89,2713.96 1074.39,2713.3 1072.5,2713.5C 1072.67,2706.83 1072.5,2700.16 1072,2693.5C 1070.74,2691.39 1068.9,2690.39 1066.5,2690.5C 1066.5,2681.17 1066.5,2671.83 1066.5,2662.5C 1064.5,2662.17 1062.5,2661.83 1060.5,2661.5C 1060.67,2652.49 1060.5,2643.49 1060,2634.5C 1058.42,2633.14 1056.58,2632.47 1054.5,2632.5C 1054.67,2621.49 1054.5,2610.49 1054,2599.5C 1052.3,2598.59 1050.47,2598.26 1048.5,2598.5C 1048.67,2589.16 1048.5,2579.83 1048,2570.5C 1046.64,2569.62 1045.14,2569.29 1043.5,2569.5C 1043.67,2560.49 1043.5,2551.49 1043,2542.5C 1041.56,2540.84 1039.72,2540.18 1037.5,2540.5C 1037.5,2532.83 1037.5,2525.17 1037.5,2517.5C 1035.5,2517.5 1033.5,2517.5 1031.5,2517.5C 1031.5,2507.83 1031.5,2498.17 1031.5,2488.5C 1029.5,2488.5 1027.5,2488.5 1025.5,2488.5C 1025.67,2481.16 1025.5,2473.83 1025,2466.5C 1023.42,2465.14 1021.58,2464.47 1019.5,2464.5C 1019.67,2457.16 1019.5,2449.83 1019,2442.5C 1017.64,2441.62 1016.14,2441.29 1014.5,2441.5C 1014.67,2436.49 1014.5,2431.49 1014,2426.5C 1012.56,2424.84 1010.72,2424.18 1008.5,2424.5C 1008.5,2418.83 1008.5,2413.17 1008.5,2407.5C 1006.5,2407.5 1004.5,2407.5 1002.5,2407.5C 1002.5,2401.5 1002.5,2395.5 1002.5,2389.5C 1000.5,2389.5 998.5,2389.5 996.5,2389.5C 996.665,2386.15 996.498,2382.82 996,2379.5C 994.644,2378.62 993.144,2378.29 991.5,2378.5C 991.666,2373.16 991.499,2367.82 991,2362.5C 989.556,2360.84 987.722,2360.18 985.5,2360.5C 985.665,2357.15 985.498,2353.82 985,2350.5C 983.301,2349.59 981.467,2349.26 979.5,2349.5C 979.665,2345.82 979.499,2342.15 979,2338.5C 977.301,2337.59 975.467,2337.26 973.5,2337.5C 973.833,2333.17 971.833,2331.17 967.5,2331.5C 967.665,2328.15 967.498,2324.82 967,2321.5C 965.644,2320.62 964.144,2320.29 962.5,2320.5C 962.697,2316.19 960.697,2314.19 956.5,2314.5C 956.5,2310.83 956.5,2307.17 956.5,2303.5C 954.5,2303.17 952.5,2302.83 950.5,2302.5C 950.5,2300.83 950.5,2299.17 950.5,2297.5C 948.5,2297.5 946.5,2297.5 944.5,2297.5C 944.5,2293.5 944.5,2289.5 944.5,2285.5C 942.5,2285.5 940.5,2285.5 938.5,2285.5C 938.5,2283.5 938.5,2281.5 938.5,2279.5C 936.833,2279.5 935.167,2279.5 933.5,2279.5C 933.167,2275.83 931.167,2273.83 927.5,2273.5C 927.5,2271.83 927.5,2270.17 927.5,2268.5C 925.5,2268.5 923.5,2268.5 921.5,2268.5C 921.5,2266.5 921.5,2264.5 921.5,2262.5C 919.5,2262.5 917.5,2262.5 915.5,2262.5C 915.5,2260.5 915.5,2258.5 915.5,2256.5C 913.5,2256.5 911.5,2256.5 909.5,2256.5C 909.5,2254.5 909.5,2252.5 909.5,2250.5C 907.833,2250.5 906.167,2250.5 904.5,2250.5C 904.822,2248.28 904.155,2246.44 902.5,2245C 899.183,2244.5 895.85,2244.33 892.5,2244.5C 892.5,2242.83 892.5,2241.17 892.5,2239.5C 890.5,2239.5 888.5,2239.5 886.5,2239.5C 886.5,2237.5 886.5,2235.5 886.5,2233.5C 882.833,2233.5 879.167,2233.5 875.5,2233.5C 875.697,2229.19 873.697,2227.19 869.5,2227.5C 869.714,2225.86 869.38,2224.36 868.5,2223C 864.974,2221.66 861.308,2221.16 857.5,2221.5C 857.643,2219.74 857.309,2218.07 856.5,2216.5C 853.232,2215.51 849.898,2215.18 846.5,2215.5C 846.5,2213.83 846.5,2212.17 846.5,2210.5C 842.5,2210.5 838.5,2210.5 834.5,2210.5C 834.5,2208.5 834.5,2206.5 834.5,2204.5C 830.833,2204.5 827.167,2204.5 823.5,2204.5C 823.167,2202.5 822.833,2200.5 822.5,2198.5C 818.833,2198.5 815.167,2198.5 811.5,2198.5C 811.822,2196.28 811.155,2194.44 809.5,2193C 804.511,2192.5 799.511,2192.33 794.5,2192.5C 794.703,2190.61 794.037,2189.11 792.5,2188C 787.177,2187.5 781.844,2187.33 776.5,2187.5C 776.739,2185.53 776.406,2183.7 775.5,2182C 770.177,2181.5 764.844,2181.33 759.5,2181.5C 759.5,2179.5 759.5,2177.5 759.5,2175.5C 755.5,2175.5 751.5,2175.5 747.5,2175.5C 747.5,2173.5 747.5,2171.5 747.5,2169.5C 743.833,2169.5 740.167,2169.5 736.5,2169.5C 736.607,2167.1 735.607,2165.26 733.5,2164C 730.518,2163.5 727.518,2163.34 724.5,2163.5C 724.714,2161.86 724.38,2160.36 723.5,2159C 720.183,2158.5 716.85,2158.33 713.5,2158.5C 713.833,2154.17 711.833,2152.17 707.5,2152.5C 707.5,2150.5 707.5,2148.5 707.5,2146.5C 703.5,2146.5 699.5,2146.5 695.5,2146.5C 695.5,2144.5 695.5,2142.5 695.5,2140.5C 693.5,2140.5 691.5,2140.5 689.5,2140.5C 689.739,2138.53 689.406,2136.7 688.5,2135C 685.183,2134.5 681.85,2134.33 678.5,2134.5C 678.5,2132.83 678.5,2131.17 678.5,2129.5C 676.5,2129.5 674.5,2129.5 672.5,2129.5C 672.5,2127.5 672.5,2125.5 672.5,2123.5C 668.5,2123.5 664.5,2123.5 660.5,2123.5C 660.5,2121.5 660.5,2119.5 660.5,2117.5C 658.833,2117.5 657.167,2117.5 655.5,2117.5C 655.167,2113.83 653.167,2111.83 649.5,2111.5C 649.5,2109.83 649.5,2108.17 649.5,2106.5C 647.5,2106.17 645.5,2105.83 643.5,2105.5C 643.5,2103.83 643.5,2102.17 643.5,2100.5C 638.5,2101.5 636.5,2099.5 637.5,2094.5C 633.833,2094.5 630.167,2094.5 626.5,2094.5C 626.697,2090.19 624.697,2088.19 620.5,2088.5C 620.806,2084.3 618.806,2082.3 614.5,2082.5C 614.938,2078.09 612.938,2076.43 608.5,2077.5C 609.575,2073.06 607.908,2071.06 603.5,2071.5C 603.697,2067.19 601.697,2065.19 597.5,2065.5C 597.833,2061.17 595.833,2059.17 591.5,2059.5C 591.806,2055.3 589.806,2053.3 585.5,2053.5C 585.938,2049.09 583.938,2047.43 579.5,2048.5C 580.575,2044.06 578.908,2042.06 574.5,2042.5C 574.697,2038.19 572.697,2036.19 568.5,2036.5C 568.833,2032.17 566.833,2030.17 562.5,2030.5C 562.806,2026.3 560.806,2024.3 556.5,2024.5C 556.5,2020.83 556.5,2017.17 556.5,2013.5C 554.5,2013.5 552.5,2013.5 550.5,2013.5C 550.5,2011.5 550.5,2009.5 550.5,2007.5C 548.833,2007.5 547.167,2007.5 545.5,2007.5C 545.167,2005.5 544.833,2003.5 544.5,2001.5C 542.833,2001.5 541.167,2001.5 539.5,2001.5C 539.5,1999.83 539.5,1998.17 539.5,1996.5C 537.5,1996.17 535.5,1995.83 533.5,1995.5C 533.5,1993.83 533.5,1992.17 533.5,1990.5C 531.5,1990.5 529.5,1990.5 527.5,1990.5C 527.5,1986.5 527.5,1982.5 527.5,1978.5C 525.5,1978.5 523.5,1978.5 521.5,1978.5C 521.981,1974.65 520.314,1972.65 516.5,1972.5C 516.167,1968.83 514.167,1966.83 510.5,1966.5C 510.5,1964.83 510.5,1963.17 510.5,1961.5C 508.5,1961.5 506.5,1961.5 504.5,1961.5C 504.5,1957.5 504.5,1953.5 504.5,1949.5C 502.5,1949.5 500.5,1949.5 498.5,1949.5C 498.981,1945.65 497.314,1943.65 493.5,1943.5C 493.665,1940.48 493.498,1937.48 493,1934.5C 491.556,1932.84 489.722,1932.18 487.5,1932.5C 487.5,1930.5 487.5,1928.5 487.5,1926.5C 485.5,1926.5 483.5,1926.5 481.5,1926.5C 481.833,1922.17 479.833,1920.17 475.5,1920.5C 475.665,1917.15 475.498,1913.82 475,1910.5C 473.301,1909.59 471.467,1909.26 469.5,1909.5C 470.575,1905.06 468.908,1903.06 464.5,1903.5C 464.605,1899.45 464.272,1895.45 463.5,1891.5C 461.833,1891.5 460.167,1891.5 458.5,1891.5C 458.5,1889.83 458.5,1888.17 458.5,1886.5C 456.5,1886.17 454.5,1885.83 452.5,1885.5C 452.5,1881.83 452.5,1878.17 452.5,1874.5C 450.5,1874.5 448.5,1874.5 446.5,1874.5C 446.665,1870.82 446.499,1867.15 446,1863.5C 444.301,1862.59 442.467,1862.26 440.5,1862.5C 440.981,1858.65 439.314,1856.65 435.5,1856.5C 435.665,1853.48 435.498,1850.48 435,1847.5C 433.556,1845.84 431.722,1845.18 429.5,1845.5C 429.823,1841.77 429.489,1838.11 428.5,1834.5C 426.929,1833.69 425.262,1833.36 423.5,1833.5C 423.938,1829.09 421.938,1827.43 417.5,1828.5C 417.5,1824.5 417.5,1820.5 417.5,1816.5C 415.5,1816.5 413.5,1816.5 411.5,1816.5C 411.665,1813.15 411.498,1809.82 411,1806.5C 409.89,1804.96 408.39,1804.3 406.5,1804.5C 406.665,1801.15 406.498,1797.82 406,1794.5C 404.301,1793.59 402.467,1793.26 400.5,1793.5C 400.5,1791.5 400.5,1789.5 400.5,1787.5C 398.5,1787.5 396.5,1787.5 394.5,1787.5C 394.665,1784.15 394.498,1780.82 394,1777.5C 392.416,1776.14 390.582,1775.47 388.5,1775.5C 388.665,1772.15 388.498,1768.82 388,1765.5C 386.644,1764.62 385.144,1764.29 383.5,1764.5C 383.605,1760.45 383.272,1756.45 382.5,1752.5C 380.833,1752.5 379.167,1752.5 377.5,1752.5C 377.665,1749.48 377.498,1746.48 377,1743.5C 375.556,1741.84 373.722,1741.18 371.5,1741.5C 371.665,1738.15 371.498,1734.82 371,1731.5C 369.556,1729.84 367.722,1729.18 365.5,1729.5C 365.665,1726.15 365.498,1722.82 365,1719.5C 363.416,1718.14 361.582,1717.47 359.5,1717.5C 359.5,1713.83 359.5,1710.17 359.5,1706.5C 357.833,1706.5 356.167,1706.5 354.5,1706.5C 354.665,1703.48 354.498,1700.48 354,1697.5C 352.736,1695.39 350.903,1694.39 348.5,1694.5C 348.5,1690.83 348.5,1687.17 348.5,1683.5C 346.5,1683.5 344.5,1683.5 342.5,1683.5C 342.5,1679.5 342.5,1675.5 342.5,1671.5C 340.5,1671.5 338.5,1671.5 336.5,1671.5C 336.5,1665.83 336.5,1660.17 336.5,1654.5C 334.5,1654.5 332.5,1654.5 330.5,1654.5C 330.5,1650.5 330.5,1646.5 330.5,1642.5C 328.833,1642.5 327.167,1642.5 325.5,1642.5C 325.665,1639.48 325.498,1636.48 325,1633.5C 323.556,1631.84 321.722,1631.18 319.5,1631.5C 319.665,1628.15 319.498,1624.82 319,1621.5C 317.556,1619.84 315.722,1619.18 313.5,1619.5C 313.5,1613.83 313.5,1608.17 313.5,1602.5C 311.5,1602.5 309.5,1602.5 307.5,1602.5C 307.5,1598.5 307.5,1594.5 307.5,1590.5C 305.5,1590.5 303.5,1590.5 301.5,1590.5C 301.5,1584.83 301.5,1579.17 301.5,1573.5C 299.833,1573.5 298.167,1573.5 296.5,1573.5C 296.605,1569.45 296.272,1565.45 295.5,1561.5C 293.833,1561.5 292.167,1561.5 290.5,1561.5C 290.5,1555.83 290.5,1550.17 290.5,1544.5C 288.5,1544.5 286.5,1544.5 284.5,1544.5C 284.5,1540.5 284.5,1536.5 284.5,1532.5C 282.5,1532.5 280.5,1532.5 278.5,1532.5C 278.666,1527.16 278.499,1521.82 278,1516.5C 276.644,1515.62 275.144,1515.29 273.5,1515.5C 273.666,1510.16 273.499,1504.82 273,1499.5C 271.556,1497.84 269.722,1497.18 267.5,1497.5C 267.666,1492.49 267.499,1487.49 267,1482.5C 265.599,1480.81 263.766,1480.14 261.5,1480.5C 261.5,1474.83 261.5,1469.17 261.5,1463.5C 259.5,1463.5 257.5,1463.5 255.5,1463.5C 255.829,1457.79 255.495,1452.13 254.5,1446.5C 252.929,1445.69 251.262,1445.36 249.5,1445.5C 249.5,1439.83 249.5,1434.17 249.5,1428.5C 247.833,1428.5 246.167,1428.5 244.5,1428.5C 244.666,1423.49 244.499,1418.49 244,1413.5C 242.556,1411.84 240.722,1411.18 238.5,1411.5C 238.666,1405.82 238.499,1400.16 238,1394.5C 236.301,1393.59 234.467,1393.26 232.5,1393.5C 232.5,1387.83 232.5,1382.17 232.5,1376.5C 230.5,1376.5 228.5,1376.5 226.5,1376.5C 226.666,1369.16 226.5,1361.83 226,1354.5C 224.301,1353.59 222.467,1353.26 220.5,1353.5C 220.666,1346.16 220.5,1338.83 220,1331.5C 218.644,1330.62 217.144,1330.29 215.5,1330.5C 215.666,1323.16 215.5,1315.83 215,1308.5C 213.556,1306.84 211.722,1306.18 209.5,1306.5C 209.666,1299.16 209.5,1291.83 209,1284.5C 207.301,1283.59 205.467,1283.26 203.5,1283.5C 203.5,1275.83 203.5,1268.17 203.5,1260.5C 201.5,1260.5 199.5,1260.5 197.5,1260.5C 197.5,1252.83 197.5,1245.17 197.5,1237.5C 195.5,1237.5 193.5,1237.5 191.5,1237.5C 191.666,1228.16 191.5,1218.83 191,1209.5C 189.644,1208.62 188.144,1208.29 186.5,1208.5C 186.77,1196.8 186.436,1185.13 185.5,1173.5C 183.833,1173.5 182.167,1173.5 180.5,1173.5C 180.5,1162.17 180.5,1150.83 180.5,1139.5C 178.5,1139.17 176.5,1138.83 174.5,1138.5C 174.5,1125.17 174.5,1111.83 174.5,1098.5C 172.5,1098.5 170.5,1098.5 168.5,1098.5C 168.5,1079.17 168.5,1059.83 168.5,1040.5C 166.833,1040.5 165.167,1040.5 163.5,1040.5C 163.5,975.833 163.5,911.167 163.5,846.5C 165.167,846.5 166.833,846.5 168.5,846.5C 168.5,831.167 168.5,815.833 168.5,800.5C 170.582,800.528 172.416,799.861 174,798.5C 174.5,789.506 174.666,780.506 174.5,771.5C 176.5,771.167 178.5,770.833 180.5,770.5C 180.5,762.833 180.5,755.167 180.5,747.5C 182.722,747.822 184.556,747.155 186,745.5C 186.5,738.508 186.666,731.508 186.5,724.5C 188.167,724.5 189.833,724.5 191.5,724.5C 191.5,714.833 191.5,705.167 191.5,695.5C 193.467,695.739 195.301,695.406 197,694.5C 197.5,683.505 197.667,672.505 197.5,661.5C 199.582,661.528 201.416,660.861 203,659.5C 203.5,644.504 203.667,629.504 203.5,614.5C 205.5,614.5 207.5,614.5 209.5,614.5C 209.667,571.832 209.5,529.165 209,486.5C 207.556,484.845 205.722,484.178 203.5,484.5C 203.5,467.167 203.5,449.833 203.5,432.5C 201.5,432.5 199.5,432.5 197.5,432.5C 197.5,422.833 197.5,413.167 197.5,403.5C 195.5,403.5 193.5,403.5 191.5,403.5C 191.5,393.833 191.5,384.167 191.5,374.5C 189.833,374.5 188.167,374.5 186.5,374.5C 186.666,367.492 186.5,360.492 186,353.5C 184.556,351.845 182.722,351.178 180.5,351.5C 180.5,343.833 180.5,336.167 180.5,328.5C 178.5,328.5 176.5,328.5 174.5,328.5C 174.666,323.156 174.499,317.823 174,312.5C 172.556,310.845 170.722,310.178 168.5,310.5C 168.5,304.833 168.5,299.167 168.5,293.5C 166.833,293.5 165.167,293.5 163.5,293.5C 163.666,288.489 163.499,283.489 163,278.5C 161.556,276.845 159.722,276.178 157.5,276.5C 157.697,270.455 157.363,264.455 156.5,258.5C 154.833,258.5 153.167,258.5 151.5,258.5C 151.5,254.833 151.5,251.167 151.5,247.5C 149.5,247.5 147.5,247.5 145.5,247.5C 145.666,241.824 145.499,236.157 145,230.5C 143.301,229.594 141.467,229.261 139.5,229.5C 139.665,226.15 139.498,222.817 139,219.5C 137.644,218.62 136.144,218.286 134.5,218.5C 134.605,214.452 134.272,210.452 133.5,206.5C 131.833,206.5 130.167,206.5 128.5,206.5C 128.5,202.833 128.5,199.167 128.5,195.5C 126.5,195.5 124.5,195.5 122.5,195.5C 122.5,191.5 122.5,187.5 122.5,183.5C 120.5,183.5 118.5,183.5 116.5,183.5C 116.665,180.15 116.498,176.817 116,173.5C 114.556,171.845 112.722,171.178 110.5,171.5C 110.665,168.15 110.498,164.817 110,161.5C 108.644,160.62 107.144,160.286 105.5,160.5C 105.605,156.452 105.272,152.452 104.5,148.5C 102.833,148.5 101.167,148.5 99.5,148.5C 99.5,144.833 99.5,141.167 99.5,137.5C 97.5,137.5 95.5,137.5 93.5,137.5C 93.5,135.5 93.5,133.5 93.5,131.5C 91.5,131.5 89.5,131.5 87.5,131.5C 87.5,127.5 87.5,123.5 87.5,119.5C 85.5,119.5 83.5,119.5 81.5,119.5C 81.665,116.15 81.4983,112.817 81,109.5C 79.6439,108.62 78.1439,108.286 76.5,108.5C 76.8333,104.167 74.8333,102.167 70.5,102.5C 70.665,99.1501 70.4983,95.8168 70,92.5C 68.4157,91.1387 66.5824,90.472 64.5,90.5C 64.8063,86.3029 62.8063,84.3029 58.5,84.5C 58.5,80.8333 58.5,77.1667 58.5,73.5C 56.5,73.5 54.5,73.5 52.5,73.5C 52.5,71.5 52.5,69.5 52.5,67.5C 50.8333,67.5 49.1667,67.5 47.5,67.5C 47.6646,64.4816 47.498,61.4816 47,58.5C 45.5557,56.8446 43.7224,56.178 41.5,56.5C 41.5,54.5 41.5,52.5 41.5,50.5C 39.5,50.5 37.5,50.5 35.5,50.5C 35.5,48.5 35.5,46.5 35.5,44.5C 33.5,44.5 31.5,44.5 29.5,44.5C 29.6653,40.8183 29.4986,37.1516 29,33.5C 27.6439,32.6198 26.1439,32.2865 24.5,32.5C 24.3491,28.686 22.3491,27.0193 18.5,27.5C 18.8333,23.1667 16.8333,21.1667 12.5,21.5C 12.5,19.5 12.5,17.5 12.5,15.5C 10.5,15.5 8.5,15.5 6.5,15.5C 6.5,13.5 6.5,11.5 6.5,9.5C 4.16667,9.5 1.83333,9.5 -0.5,9.5 Z"/></g>
<g><path style="opacity:0.999" fill="#f5f5f5" d="M -0.5,9.5 C 1.83333,9.5 4.16667,9.5 6.5,9.5C 6.5,11.5 6.5,13.5 6.5,15.5C 8.5,15.5 10.5,15.5 12.5,15.5C 12.5,17.5 12.5,19.5 12.5,21.5C 16.8333,21.1667 18.8333,23.1667 18.5,27.5C 22.3491,27.0193 24.3491,28.686 24.5,32.5C 26.1439,32.2865 27.6439,32.6198 29,33.5C 29.4986,37.1516 29.6653,40.8183 29.5,44.5C 31.5,44.5 33.5,44.5 35.5,44.5C 35.5,46.5 35.5,48.5 35.5,50.5C 37.5,50.5 39.5,50.5 41.5,50.5C 41.5,52.5 41.5,54.5 41.5,56.5C 43.7224,56.178 45.5557,56.8446 47,58.5C 47.498,61.4816 47.6646,64.4816 47.5,67.5C 49.1667,67.5 50.8333,67.5 52.5,67.5C 52.5,69.5 52.5,71.5 52.5,73.5C 54.5,73.5 56.5,73.5 58.5,73.5C 58.5,77.1667 58.5,80.8333 58.5,84.5C 62.8063,84.3029 64.8063,86.3029 64.5,90.5C 66.5824,90.472 68.4157,91.1387 70,92.5C 70.4983,95.8168 70.665,99.1501 70.5,102.5C 74.8333,102.167 76.8333,104.167 76.5,108.5C 78.1439,108.286 79.6439,108.62 81,109.5C 81.4983,112.817 81.665,116.15 81.5,119.5C 83.5,119.5 85.5,119.5 87.5,119.5C 87.5,123.5 87.5,127.5 87.5,131.5C 89.5,131.5 91.5,131.5 93.5,131.5C 93.5,133.5 93.5,135.5 93.5,137.5C 95.5,137.5 97.5,137.5 99.5,137.5C 99.5,141.167 99.5,144.833 99.5,148.5C 101.167,148.5 102.833,148.5 104.5,148.5C 105.272,152.452 105.605,156.452 105.5,160.5C 107.144,160.286 108.644,160.62 110,161.5C 110.498,164.817 110.665,168.15 110.5,171.5C 112.722,171.178 114.556,171.845 116,173.5C 116.498,176.817 116.665,180.15 116.5,183.5C 118.5,183.5 120.5,183.5 122.5,183.5C 122.5,187.5 122.5,191.5 122.5,195.5C 124.5,195.5 126.5,195.5 128.5,195.5C 128.5,199.167 128.5,202.833 128.5,206.5C 130.167,206.5 131.833,206.5 133.5,206.5C 134.272,210.452 134.605,214.452 134.5,218.5C 136.144,218.286 137.644,218.62 139,219.5C 139.498,222.817 139.665,226.15 139.5,229.5C 141.467,229.261 143.301,229.594 145,230.5C 145.499,236.157 145.666,241.824 145.5,247.5C 147.5,247.5 149.5,247.5 151.5,247.5C 151.5,251.167 151.5,254.833 151.5,258.5C 153.167,258.5 154.833,258.5 156.5,258.5C 157.363,264.455 157.697,270.455 157.5,276.5C 159.722,276.178 161.556,276.845 163,278.5C 163.499,283.489 163.666,288.489 163.5,293.5C 165.167,293.5 166.833,293.5 168.5,293.5C 168.5,299.167 168.5,304.833 168.5,310.5C 170.722,310.178 172.556,310.845 174,312.5C 174.499,317.823 174.666,323.156 174.5,328.5C 176.5,328.5 178.5,328.5 180.5,328.5C 180.5,336.167 180.5,343.833 180.5,351.5C 182.722,351.178 184.556,351.845 186,353.5C 186.5,360.492 186.666,367.492 186.5,374.5C 188.167,374.5 189.833,374.5 191.5,374.5C 191.5,384.167 191.5,393.833 191.5,403.5C 193.5,403.5 195.5,403.5 197.5,403.5C 197.5,413.167 197.5,422.833 197.5,432.5C 199.5,432.5 201.5,432.5 203.5,432.5C 203.5,449.833 203.5,467.167 203.5,484.5C 205.722,484.178 207.556,484.845 209,486.5C 209.5,529.165 209.667,571.832 209.5,614.5C 207.5,614.5 205.5,614.5 203.5,614.5C 203.667,629.504 203.5,644.504 203,659.5C 201.416,660.861 199.582,661.528 197.5,661.5C 197.667,672.505 197.5,683.505 197,694.5C 195.301,695.406 193.467,695.739 191.5,695.5C 191.5,705.167 191.5,714.833 191.5,724.5C 189.833,724.5 188.167,724.5 186.5,724.5C 186.666,731.508 186.5,738.508 186,745.5C 184.556,747.155 182.722,747.822 180.5,747.5C 180.5,755.167 180.5,762.833 180.5,770.5C 178.5,770.833 176.5,771.167 174.5,771.5C 174.666,780.506 174.5,789.506 174,798.5C 172.416,799.861 170.582,800.528 168.5,800.5C 168.5,815.833 168.5,831.167 168.5,846.5C 166.833,846.5 165.167,846.5 163.5,846.5C 163.5,911.167 163.5,975.833 163.5,1040.5C 165.167,1040.5 166.833,1040.5 168.5,1040.5C 168.5,1059.83 168.5,1079.17 168.5,1098.5C 170.5,1098.5 172.5,1098.5 174.5,1098.5C 174.5,1111.83 174.5,1125.17 174.5,1138.5C 176.5,1138.83 178.5,1139.17 180.5,1139.5C 180.5,1150.83 180.5,1162.17 180.5,1173.5C 182.167,1173.5 183.833,1173.5 185.5,1173.5C 186.436,1185.13 186.77,1196.8 186.5,1208.5C 188.144,1208.29 189.644,1208.62 191,1209.5C 191.5,1218.83 191.666,1228.16 191.5,1237.5C 193.5,1237.5 195.5,1237.5 197.5,1237.5C 197.5,1245.17 197.5,1252.83 197.5,1260.5C 199.5,1260.5 201.5,1260.5 203.5,1260.5C 203.5,1268.17 203.5,1275.83 203.5,1283.5C 205.467,1283.26 207.301,1283.59 209,1284.5C 209.5,1291.83 209.666,1299.16 209.5,1306.5C 211.722,1306.18 213.556,1306.84 215,1308.5C 215.5,1315.83 215.666,1323.16 215.5,1330.5C 217.144,1330.29 218.644,1330.62 220,1331.5C 220.5,1338.83 220.666,1346.16 220.5,1353.5C 222.467,1353.26 224.301,1353.59 226,1354.5C 226.5,1361.83 226.666,1369.16 226.5,1376.5C 228.5,1376.5 230.5,1376.5 232.5,1376.5C 232.5,1382.17 232.5,1387.83 232.5,1393.5C 234.467,1393.26 236.301,1393.59 238,1394.5C 238.499,1400.16 238.666,1405.82 238.5,1411.5C 240.722,1411.18 242.556,1411.84 244,1413.5C 244.499,1418.49 244.666,1423.49 244.5,1428.5C 246.167,1428.5 247.833,1428.5 249.5,1428.5C 249.5,1434.17 249.5,1439.83 249.5,1445.5C 251.262,1445.36 252.929,1445.69 254.5,1446.5C 255.495,1452.13 255.829,1457.79 255.5,1463.5C 257.5,1463.5 259.5,1463.5 261.5,1463.5C 261.5,1469.17 261.5,1474.83 261.5,1480.5C 263.766,1480.14 265.599,1480.81 267,1482.5C 267.499,1487.49 267.666,1492.49 267.5,1497.5C 269.722,1497.18 271.556,1497.84 273,1499.5C 273.499,1504.82 273.666,1510.16 273.5,1515.5C 275.144,1515.29 276.644,1515.62 278,1516.5C 278.499,1521.82 278.666,1527.16 278.5,1532.5C 280.5,1532.5 282.5,1532.5 284.5,1532.5C 284.5,1536.5 284.5,1540.5 284.5,1544.5C 286.5,1544.5 288.5,1544.5 290.5,1544.5C 290.5,1550.17 290.5,1555.83 290.5,1561.5C 292.167,1561.5 293.833,1561.5 295.5,1561.5C 296.272,1565.45 296.605,1569.45 296.5,1573.5C 298.167,1573.5 299.833,1573.5 301.5,1573.5C 301.5,1579.17 301.5,1584.83 301.5,1590.5C 303.5,1590.5 305.5,1590.5 307.5,1590.5C 307.5,1594.5 307.5,1598.5 307.5,1602.5C 309.5,1602.5 311.5,1602.5 313.5,1602.5C 313.5,1608.17 313.5,1613.83 313.5,1619.5C 315.722,1619.18 317.556,1619.84 319,1621.5C 319.498,1624.82 319.665,1628.15 319.5,1631.5C 321.722,1631.18 323.556,1631.84 325,1633.5C 325.498,1636.48 325.665,1639.48 325.5,1642.5C 327.167,1642.5 328.833,1642.5 330.5,1642.5C 330.5,1646.5 330.5,1650.5 330.5,1654.5C 332.5,1654.5 334.5,1654.5 336.5,1654.5C 336.5,1660.17 336.5,1665.83 336.5,1671.5C 338.5,1671.5 340.5,1671.5 342.5,1671.5C 342.5,1675.5 342.5,1679.5 342.5,1683.5C 344.5,1683.5 346.5,1683.5 348.5,1683.5C 348.5,1687.17 348.5,1690.83 348.5,1694.5C 350.903,1694.39 352.736,1695.39 354,1697.5C 354.498,1700.48 354.665,1703.48 354.5,1706.5C 356.167,1706.5 357.833,1706.5 359.5,1706.5C 359.5,1710.17 359.5,1713.83 359.5,1717.5C 361.582,1717.47 363.416,1718.14 365,1719.5C 365.498,1722.82 365.665,1726.15 365.5,1729.5C 367.722,1729.18 369.556,1729.84 371,1731.5C 371.498,1734.82 371.665,1738.15 371.5,1741.5C 373.722,1741.18 375.556,1741.84 377,1743.5C 377.498,1746.48 377.665,1749.48 377.5,1752.5C 379.167,1752.5 380.833,1752.5 382.5,1752.5C 383.272,1756.45 383.605,1760.45 383.5,1764.5C 385.144,1764.29 386.644,1764.62 388,1765.5C 388.498,1768.82 388.665,1772.15 388.5,1775.5C 390.582,1775.47 392.416,1776.14 394,1777.5C 394.498,1780.82 394.665,1784.15 394.5,1787.5C 396.5,1787.5 398.5,1787.5 400.5,1787.5C 400.5,1789.5 400.5,1791.5 400.5,1793.5C 402.467,1793.26 404.301,1793.59 406,1794.5C 406.498,1797.82 406.665,1801.15 406.5,1804.5C 408.39,1804.3 409.89,1804.96 411,1806.5C 411.498,1809.82 411.665,1813.15 411.5,1816.5C 413.5,1816.5 415.5,1816.5 417.5,1816.5C 417.5,1820.5 417.5,1824.5 417.5,1828.5C 421.938,1827.43 423.938,1829.09 423.5,1833.5C 425.262,1833.36 426.929,1833.69 428.5,1834.5C 429.489,1838.11 429.823,1841.77 429.5,1845.5C 431.722,1845.18 433.556,1845.84 435,1847.5C 435.498,1850.48 435.665,1853.48 435.5,1856.5C 439.314,1856.65 440.981,1858.65 440.5,1862.5C 442.467,1862.26 444.301,1862.59 446,1863.5C 446.499,1867.15 446.665,1870.82 446.5,1874.5C 448.5,1874.5 450.5,1874.5 452.5,1874.5C 452.5,1878.17 452.5,1881.83 452.5,1885.5C 454.5,1885.83 456.5,1886.17 458.5,1886.5C 458.5,1888.17 458.5,1889.83 458.5,1891.5C 460.167,1891.5 461.833,1891.5 463.5,1891.5C 464.272,1895.45 464.605,1899.45 464.5,1903.5C 468.908,1903.06 470.575,1905.06 469.5,1909.5C 471.467,1909.26 473.301,1909.59 475,1910.5C 475.498,1913.82 475.665,1917.15 475.5,1920.5C 479.833,1920.17 481.833,1922.17 481.5,1926.5C 483.5,1926.5 485.5,1926.5 487.5,1926.5C 487.5,1928.5 487.5,1930.5 487.5,1932.5C 489.722,1932.18 491.556,1932.84 493,1934.5C 493.498,1937.48 493.665,1940.48 493.5,1943.5C 497.314,1943.65 498.981,1945.65 498.5,1949.5C 500.5,1949.5 502.5,1949.5 504.5,1949.5C 504.5,1953.5 504.5,1957.5 504.5,1961.5C 506.5,1961.5 508.5,1961.5 510.5,1961.5C 510.5,1963.17 510.5,1964.83 510.5,1966.5C 514.167,1966.83 516.167,1968.83 516.5,1972.5C 520.314,1972.65 521.981,1974.65 521.5,1978.5C 523.5,1978.5 525.5,1978.5 527.5,1978.5C 527.5,1982.5 527.5,1986.5 527.5,1990.5C 529.5,1990.5 531.5,1990.5 533.5,1990.5C 533.5,1992.17 533.5,1993.83 533.5,1995.5C 535.5,1995.83 537.5,1996.17 539.5,1996.5C 539.5,1998.17 539.5,1999.83 539.5,2001.5C 541.167,2001.5 542.833,2001.5 544.5,2001.5C 544.833,2003.5 545.167,2005.5 545.5,2007.5C 547.167,2007.5 548.833,2007.5 550.5,2007.5C 550.5,2009.5 550.5,2011.5 550.5,2013.5C 552.5,2013.5 554.5,2013.5 556.5,2013.5C 556.5,2017.17 556.5,2020.83 556.5,2024.5C 560.806,2024.3 562.806,2026.3 562.5,2030.5C 566.833,2030.17 568.833,2032.17 568.5,2036.5C 572.697,2036.19 574.697,2038.19 574.5,2042.5C 578.908,2042.06 580.575,2044.06 579.5,2048.5C 583.938,2047.43 585.938,2049.09 585.5,2053.5C 589.806,2053.3 591.806,2055.3 591.5,2059.5C 595.833,2059.17 597.833,2061.17 597.5,2065.5C 601.697,2065.19 603.697,2067.19 603.5,2071.5C 607.908,2071.06 609.575,2073.06 608.5,2077.5C 612.938,2076.43 614.938,2078.09 614.5,2082.5C 618.806,2082.3 620.806,2084.3 620.5,2088.5C 624.697,2088.19 626.697,2090.19 626.5,2094.5C 630.167,2094.5 633.833,2094.5 637.5,2094.5C 636.5,2099.5 638.5,2101.5 643.5,2100.5C 643.5,2102.17 643.5,2103.83 643.5,2105.5C 645.5,2105.83 647.5,2106.17 649.5,2106.5C 649.5,2108.17 649.5,2109.83 649.5,2111.5C 653.167,2111.83 655.167,2113.83 655.5,2117.5C 657.167,2117.5 658.833,2117.5 660.5,2117.5C 660.5,2119.5 660.5,2121.5 660.5,2123.5C 664.5,2123.5 668.5,2123.5 672.5,2123.5C 672.5,2125.5 672.5,2127.5 672.5,2129.5C 674.5,2129.5 676.5,2129.5 678.5,2129.5C 678.5,2131.17 678.5,2132.83 678.5,2134.5C 681.85,2134.33 685.183,2134.5 688.5,2135C 689.406,2136.7 689.739,2138.53 689.5,2140.5C 691.5,2140.5 693.5,2140.5 695.5,2140.5C 695.5,2142.5 695.5,2144.5 695.5,2146.5C 699.5,2146.5 703.5,2146.5 707.5,2146.5C 707.5,2148.5 707.5,2150.5 707.5,2152.5C 711.833,2152.17 713.833,2154.17 713.5,2158.5C 716.85,2158.33 720.183,2158.5 723.5,2159C 724.38,2160.36 724.714,2161.86 724.5,2163.5C 727.518,2163.34 730.518,2163.5 733.5,2164C 735.607,2165.26 736.607,2167.1 736.5,2169.5C 740.167,2169.5 743.833,2169.5 747.5,2169.5C 747.5,2171.5 747.5,2173.5 747.5,2175.5C 751.5,2175.5 755.5,2175.5 759.5,2175.5C 759.5,2177.5 759.5,2179.5 759.5,2181.5C 764.844,2181.33 770.177,2181.5 775.5,2182C 776.406,2183.7 776.739,2185.53 776.5,2187.5C 781.844,2187.33 787.177,2187.5 792.5,2188C 794.037,2189.11 794.703,2190.61 794.5,2192.5C 799.511,2192.33 804.511,2192.5 809.5,2193C 811.155,2194.44 811.822,2196.28 811.5,2198.5C 815.167,2198.5 818.833,2198.5 822.5,2198.5C 822.833,2200.5 823.167,2202.5 823.5,2204.5C 827.167,2204.5 830.833,2204.5 834.5,2204.5C 834.5,2206.5 834.5,2208.5 834.5,2210.5C 838.5,2210.5 842.5,2210.5 846.5,2210.5C 846.5,2212.17 846.5,2213.83 846.5,2215.5C 849.898,2215.18 853.232,2215.51 856.5,2216.5C 857.309,2218.07 857.643,2219.74 857.5,2221.5C 861.308,2221.16 864.974,2221.66 868.5,2223C 869.38,2224.36 869.714,2225.86 869.5,2227.5C 873.697,2227.19 875.697,2229.19 875.5,2233.5C 879.167,2233.5 882.833,2233.5 886.5,2233.5C 886.5,2235.5 886.5,2237.5 886.5,2239.5C 888.5,2239.5 890.5,2239.5 892.5,2239.5C 892.5,2241.17 892.5,2242.83 892.5,2244.5C 895.85,2244.33 899.183,2244.5 902.5,2245C 904.155,2246.44 904.822,2248.28 904.5,2250.5C 906.167,2250.5 907.833,2250.5 909.5,2250.5C 909.5,2252.5 909.5,2254.5 909.5,2256.5C 911.5,2256.5 913.5,2256.5 915.5,2256.5C 915.5,2258.5 915.5,2260.5 915.5,2262.5C 917.5,2262.5 919.5,2262.5 921.5,2262.5C 921.5,2264.5 921.5,2266.5 921.5,2268.5C 923.5,2268.5 925.5,2268.5 927.5,2268.5C 927.5,2270.17 927.5,2271.83 927.5,2273.5C 931.167,2273.83 933.167,2275.83 933.5,2279.5C 935.167,2279.5 936.833,2279.5 938.5,2279.5C 938.5,2281.5 938.5,2283.5 938.5,2285.5C 940.5,2285.5 942.5,2285.5 944.5,2285.5C 944.5,2289.5 944.5,2293.5 944.5,2297.5C 946.5,2297.5 948.5,2297.5 950.5,2297.5C 950.5,2299.17 950.5,2300.83 950.5,2302.5C 952.5,2302.83 954.5,2303.17 956.5,2303.5C 956.5,2307.17 956.5,2310.83 956.5,2314.5C 960.697,2314.19 962.697,2316.19 962.5,2320.5C 964.144,2320.29 965.644,2320.62 967,2321.5C 967.498,2324.82 967.665,2328.15 967.5,2331.5C 971.833,2331.17 973.833,2333.17 973.5,2337.5C 975.467,2337.26 977.301,2337.59 979,2338.5C 979.499,2342.15 979.665,2345.82 979.5,2349.5C 981.467,2349.26 983.301,2349.59 985,2350.5C 985.498,2353.82 985.665,2357.15 985.5,2360.5C 987.722,2360.18 989.556,2360.84 991,2362.5C 991.499,2367.82 991.666,2373.16 991.5,2378.5C 993.144,2378.29 994.644,2378.62 996,2379.5C 996.498,2382.82 996.665,2386.15 996.5,2389.5C 998.5,2389.5 1000.5,2389.5 1002.5,2389.5C 1002.5,2395.5 1002.5,2401.5 1002.5,2407.5C 1004.5,2407.5 1006.5,2407.5 1008.5,2407.5C 1008.5,2413.17 1008.5,2418.83 1008.5,2424.5C 1010.72,2424.18 1012.56,2424.84 1014,2426.5C 1014.5,2431.49 1014.67,2436.49 1014.5,2441.5C 1016.14,2441.29 1017.64,2441.62 1019,2442.5C 1019.5,2449.83 1019.67,2457.16 1019.5,2464.5C 1021.58,2464.47 1023.42,2465.14 1025,2466.5C 1025.5,2473.83 1025.67,2481.16 1025.5,2488.5C 1027.5,2488.5 1029.5,2488.5 1031.5,2488.5C 1031.5,2498.17 1031.5,2507.83 1031.5,2517.5C 1033.5,2517.5 1035.5,2517.5 1037.5,2517.5C 1037.5,2525.17 1037.5,2532.83 1037.5,2540.5C 1039.72,2540.18 1041.56,2540.84 1043,2542.5C 1043.5,2551.49 1043.67,2560.49 1043.5,2569.5C 1045.14,2569.29 1046.64,2569.62 1048,2570.5C 1048.5,2579.83 1048.67,2589.16 1048.5,2598.5C 1050.47,2598.26 1052.3,2598.59 1054,2599.5C 1054.5,2610.49 1054.67,2621.49 1054.5,2632.5C 1056.58,2632.47 1058.42,2633.14 1060,2634.5C 1060.5,2643.49 1060.67,2652.49 1060.5,2661.5C 1062.5,2661.83 1064.5,2662.17 1066.5,2662.5C 1066.5,2671.83 1066.5,2681.17 1066.5,2690.5C 1068.9,2690.39 1070.74,2691.39 1072,2693.5C 1072.5,2700.16 1072.67,2706.83 1072.5,2713.5C 1074.39,2713.3 1075.89,2713.96 1077,2715.5C 1077.5,2724.49 1077.67,2733.49 1077.5,2742.5C 1079.58,2742.47 1081.42,2743.14 1083,2744.5C 1083.5,2751.83 1083.67,2759.16 1083.5,2766.5C 1085.5,2766.5 1087.5,2766.5 1089.5,2766.5C 1089.5,2774.17 1089.5,2781.83 1089.5,2789.5C 1091.72,2789.18 1093.56,2789.84 1095,2791.5C 1095.5,2798.49 1095.67,2805.49 1095.5,2812.5C 1098.24,2811.96 1100.07,2812.96 1101,2815.5C 1101.5,2820.15 1101.67,2824.82 1101.5,2829.5C 1103.14,2829.29 1104.64,2829.62 1106,2830.5C 1106.5,2837.83 1106.67,2845.16 1106.5,2852.5C 1108.58,2852.47 1110.42,2853.14 1112,2854.5C 1112.5,2859.82 1112.67,2865.16 1112.5,2870.5C 1114.5,2870.5 1116.5,2870.5 1118.5,2870.5C 1118.5,2876.17 1118.5,2881.83 1118.5,2887.5C 1120.17,2887.5 1121.83,2887.5 1123.5,2887.5C 1124.36,2893.45 1124.7,2899.45 1124.5,2905.5C 1126.14,2905.29 1127.64,2905.62 1129,2906.5C 1129.5,2911.82 1129.67,2917.16 1129.5,2922.5C 1131.5,2922.5 1133.5,2922.5 1135.5,2922.5C 1135.5,2926.5 1135.5,2930.5 1135.5,2934.5C 1137.5,2934.5 1139.5,2934.5 1141.5,2934.5C 1141.5,2940.17 1141.5,2945.83 1141.5,2951.5C 1143.5,2951.5 1145.5,2951.5 1147.5,2951.5C 1147.5,2955.17 1147.5,2958.83 1147.5,2962.5C 1149.72,2962.18 1151.56,2962.84 1153,2964.5C 1153.5,2969.82 1153.67,2975.16 1153.5,2980.5C 1155.14,2980.29 1156.64,2980.62 1158,2981.5C 1158.5,2984.82 1158.67,2988.15 1158.5,2991.5C 1160.26,2991.36 1161.93,2991.69 1163.5,2992.5C 1164.49,2996.11 1164.82,2999.77 1164.5,3003.5C 1166.5,3003.5 1168.5,3003.5 1170.5,3003.5C 1170.5,3009.17 1170.5,3014.83 1170.5,3020.5C 1172.5,3020.83 1174.5,3021.17 1176.5,3021.5C 1176.5,3025.17 1176.5,3028.83 1176.5,3032.5C 1177.87,3032.34 1179.21,3032.51 1180.5,3033C 1182.29,3036.58 1182.96,3040.42 1182.5,3044.5C 1184.14,3044.29 1185.64,3044.62 1187,3045.5C 1187.5,3048.82 1187.67,3052.15 1187.5,3055.5C 1189.5,3055.5 1191.5,3055.5 1193.5,3055.5C 1193.5,3059.5 1193.5,3063.5 1193.5,3067.5C 1195.5,3067.5 1197.5,3067.5 1199.5,3067.5C 1199.5,3071.17 1199.5,3074.83 1199.5,3078.5C 1201.5,3078.83 1203.5,3079.17 1205.5,3079.5C 1205.5,3081.17 1205.5,3082.83 1205.5,3084.5C 1207.77,3084.14 1209.6,3084.81 1211,3086.5C 1211.5,3089.82 1211.67,3093.15 1211.5,3096.5C 1213.17,3096.5 1214.83,3096.5 1216.5,3096.5C 1216.5,3100.17 1216.5,3103.83 1216.5,3107.5C 1218.72,3107.18 1220.56,3107.84 1222,3109.5C 1222.5,3112.82 1222.67,3116.15 1222.5,3119.5C 1224.5,3119.5 1226.5,3119.5 1228.5,3119.5C 1228.5,3121.5 1228.5,3123.5 1228.5,3125.5C 1230.47,3125.26 1232.3,3125.59 1234,3126.5C 1234.5,3129.82 1234.67,3133.15 1234.5,3136.5C 1236.17,3136.5 1237.83,3136.5 1239.5,3136.5C 1239.5,3140.5 1239.5,3144.5 1239.5,3148.5C 1244.5,3147.5 1246.5,3149.5 1245.5,3154.5C 1247.5,3154.5 1249.5,3154.5 1251.5,3154.5C 1251.5,3158.17 1251.5,3161.83 1251.5,3165.5C 1255.83,3165.17 1257.83,3167.17 1257.5,3171.5C 1259.72,3171.18 1261.56,3171.84 1263,3173.5C 1263.5,3176.82 1263.67,3180.15 1263.5,3183.5C 1267.5,3182.83 1269.17,3184.5 1268.5,3188.5C 1270.72,3188.18 1272.56,3188.84 1274,3190.5C 1274.5,3193.82 1274.67,3197.15 1274.5,3200.5C 1276.5,3200.5 1278.5,3200.5 1280.5,3200.5C 1280.5,3202.5 1280.5,3204.5 1280.5,3206.5C 1282.5,3206.5 1284.5,3206.5 1286.5,3206.5C 1286.5,3210.17 1286.5,3213.83 1286.5,3217.5C 1290.17,3217.83 1292.17,3219.83 1292.5,3223.5C 1294.17,3223.5 1295.83,3223.5 1297.5,3223.5C 1297.5,3225.5 1297.5,3227.5 1297.5,3229.5C 1299.5,3229.5 1301.5,3229.5 1303.5,3229.5C 1303.5,3233.17 1303.5,3236.83 1303.5,3240.5C 1307.81,3240.3 1309.81,3242.3 1309.5,3246.5C 1314.5,3245.5 1316.5,3247.5 1315.5,3252.5C 1317.17,3252.5 1318.83,3252.5 1320.5,3252.5C 1321.27,3256.45 1321.61,3260.45 1321.5,3264.5C 1325.5,3263.83 1327.17,3265.5 1326.5,3269.5C 1330.81,3269.3 1332.81,3271.3 1332.5,3275.5C 1336.83,3275.17 1338.83,3277.17 1338.5,3281.5C 1342.83,3281.17 1344.83,3283.17 1344.5,3287.5C 1346.29,3287.21 1347.95,3287.55 1349.5,3288.5C 1350.42,3291.76 1350.75,3295.09 1350.5,3298.5C 1354.31,3298.65 1355.98,3300.65 1355.5,3304.5C 1357.5,3304.5 1359.5,3304.5 1361.5,3304.5C 1361.5,3306.5 1361.5,3308.5 1361.5,3310.5C 1363.5,3310.5 1365.5,3310.5 1367.5,3310.5C 1367.5,3312.5 1367.5,3314.5 1367.5,3316.5C 1371.83,3316.17 1373.83,3318.17 1373.5,3322.5C 1377.5,3321.83 1379.17,3323.5 1378.5,3327.5C 1382.83,3327.17 1384.83,3329.17 1384.5,3333.5C 1386.5,3333.5 1388.5,3333.5 1390.5,3333.5C 1390.5,3335.5 1390.5,3337.5 1390.5,3339.5C 1392.5,3339.5 1394.5,3339.5 1396.5,3339.5C 1396.5,3341.5 1396.5,3343.5 1396.5,3345.5C 1400.35,3345.02 1402.35,3346.69 1402.5,3350.5C 1406.31,3350.65 1407.98,3352.65 1407.5,3356.5C 1411.83,3356.17 1413.83,3358.17 1413.5,3362.5C 1417.83,3362.17 1419.83,3364.17 1419.5,3368.5C 1421.5,3368.5 1423.5,3368.5 1425.5,3368.5C 1425.5,3370.5 1425.5,3372.5 1425.5,3374.5C 1429.35,3374.02 1431.35,3375.69 1431.5,3379.5C 1435.31,3379.65 1436.98,3381.65 1436.5,3385.5C 1440.18,3385.33 1443.85,3385.5 1447.5,3386C 1448.41,3387.7 1448.74,3389.53 1448.5,3391.5C 1452.83,3391.17 1454.83,3393.17 1454.5,3397.5C 1458.7,3397.19 1460.7,3399.19 1460.5,3403.5C 1464.17,3403.5 1467.83,3403.5 1471.5,3403.5C 1471.5,3405.17 1471.5,3406.83 1471.5,3408.5C 1473.5,3408.83 1475.5,3409.17 1477.5,3409.5C 1477.5,3411.17 1477.5,3412.83 1477.5,3414.5C 1479.17,3414.5 1480.83,3414.5 1482.5,3414.5C 1482.83,3416.5 1483.17,3418.5 1483.5,3420.5C 1487.17,3420.5 1490.83,3420.5 1494.5,3420.5C 1494.5,3422.5 1494.5,3424.5 1494.5,3426.5C 1498.5,3426.5 1502.5,3426.5 1506.5,3426.5C 1506.5,3428.5 1506.5,3430.5 1506.5,3432.5C 1509.85,3432.33 1513.18,3432.5 1516.5,3433C 1517.38,3434.36 1517.71,3435.86 1517.5,3437.5C 1521.31,3437.16 1524.97,3437.66 1528.5,3439C 1529.38,3440.36 1529.71,3441.86 1529.5,3443.5C 1533.17,3443.5 1536.83,3443.5 1540.5,3443.5C 1540.83,3445.5 1541.17,3447.5 1541.5,3449.5C 1547.17,3449.5 1552.83,3449.5 1558.5,3449.5C 1558.5,3451.5 1558.5,3453.5 1558.5,3455.5C 1563.84,3455.33 1569.18,3455.5 1574.5,3456C 1575.41,3457.7 1575.74,3459.53 1575.5,3461.5C 1589.17,3461.5 1602.83,3461.5 1616.5,3461.5C 1616.5,3463.17 1616.5,3464.83 1616.5,3466.5C 1629.17,3466.5 1641.83,3466.5 1654.5,3466.5C 1654.29,3464.86 1654.62,3463.36 1655.5,3462C 1668.5,3461.5 1681.5,3461.33 1694.5,3461.5C 1694.5,3459.5 1694.5,3457.5 1694.5,3455.5C 1702.17,3455.5 1709.83,3455.5 1717.5,3455.5C 1717.18,3453.28 1717.84,3451.44 1719.5,3450C 1724.82,3449.5 1730.16,3449.33 1735.5,3449.5C 1735.5,3447.5 1735.5,3445.5 1735.5,3443.5C 1741.17,3443.5 1746.83,3443.5 1752.5,3443.5C 1751.96,3440.76 1752.96,3438.93 1755.5,3438C 1760.15,3437.5 1764.82,3437.33 1769.5,3437.5C 1769.3,3435.61 1769.96,3434.11 1771.5,3433C 1776.82,3432.5 1782.16,3432.33 1787.5,3432.5C 1787.5,3430.5 1787.5,3428.5 1787.5,3426.5C 1795.17,3426.5 1802.83,3426.5 1810.5,3426.5C 1810.5,3424.5 1810.5,3422.5 1810.5,3420.5C 1818.17,3420.5 1825.83,3420.5 1833.5,3420.5C 1833.18,3418.28 1833.84,3416.44 1835.5,3415C 1862.17,3414.33 1888.83,3414.33 1915.5,3415C 1917.16,3416.44 1917.82,3418.28 1917.5,3420.5C 1923.17,3420.5 1928.83,3420.5 1934.5,3420.5C 1934.5,3422.5 1934.5,3424.5 1934.5,3426.5C 1938.5,3426.5 1942.5,3426.5 1946.5,3426.5C 1946.5,3428.5 1946.5,3430.5 1946.5,3432.5C 1949.85,3432.33 1953.18,3432.5 1956.5,3433C 1957.38,3434.36 1957.71,3435.86 1957.5,3437.5C 1961.83,3437.17 1963.83,3439.17 1963.5,3443.5C 1965.5,3443.5 1967.5,3443.5 1969.5,3443.5C 1969.5,3445.5 1969.5,3447.5 1969.5,3449.5C 1971.5,3449.5 1973.5,3449.5 1975.5,3449.5C 1975.5,3451.5 1975.5,3453.5 1975.5,3455.5C 1979.83,3455.17 1981.83,3457.17 1981.5,3461.5C 1985.5,3460.83 1987.17,3462.5 1986.5,3466.5C 1988.72,3466.18 1990.56,3466.84 1992,3468.5C 1992.5,3471.82 1992.67,3475.15 1992.5,3478.5C 1994.5,3478.5 1996.5,3478.5 1998.5,3478.5C 1998.5,3480.5 1998.5,3482.5 1998.5,3484.5C 2000.5,3484.5 2002.5,3484.5 2004.5,3484.5C 2004.5,3488.17 2004.5,3491.83 2004.5,3495.5C 2006.17,3495.5 2007.83,3495.5 2009.5,3495.5C 2010.27,3499.45 2010.61,3503.45 2010.5,3507.5C 2014.91,3507.06 2016.57,3509.06 2015.5,3513.5C 2017.47,3513.26 2019.3,3513.59 2021,3514.5C 2021.5,3517.82 2021.67,3521.15 2021.5,3524.5C 2025.83,3524.17 2027.83,3526.17 2027.5,3530.5C 2029.5,3530.5 2031.5,3530.5 2033.5,3530.5C 2033.5,3534.5 2033.5,3538.5 2033.5,3542.5C 2037.35,3542.02 2039.35,3543.69 2039.5,3547.5C 2041.39,3547.3 2042.89,3547.96 2044,3549.5C 2044.5,3552.82 2044.67,3556.15 2044.5,3559.5C 2046.5,3559.5 2048.5,3559.5 2050.5,3559.5C 2050.5,3561.5 2050.5,3563.5 2050.5,3565.5C 2052.5,3565.5 2054.5,3565.5 2056.5,3565.5C 2056.5,3569.17 2056.5,3572.83 2056.5,3576.5C 2060.17,3576.83 2062.17,3578.83 2062.5,3582.5C 2064.17,3582.5 2065.83,3582.5 2067.5,3582.5C 2067.83,3584.5 2068.17,3586.5 2068.5,3588.5C 2070.17,3588.5 2071.83,3588.5 2073.5,3588.5C 2073.5,3590.5 2073.5,3592.5 2073.5,3594.5C 2075.5,3594.5 2077.5,3594.5 2079.5,3594.5C 2079.5,3596.17 2079.5,3597.83 2079.5,3599.5C 2081.5,3599.83 2083.5,3600.17 2085.5,3600.5C 2085.5,3602.17 2085.5,3603.83 2085.5,3605.5C 2089.17,3605.83 2091.17,3607.83 2091.5,3611.5C 2093.17,3611.5 2094.83,3611.5 2096.5,3611.5C 2096.5,3613.5 2096.5,3615.5 2096.5,3617.5C 2098.5,3617.5 2100.5,3617.5 2102.5,3617.5C 2102.5,3619.5 2102.5,3621.5 2102.5,3623.5C 2104.5,3623.5 2106.5,3623.5 2108.5,3623.5C 2108.5,3625.17 2108.5,3626.83 2108.5,3628.5C 2110.5,3628.83 2112.5,3629.17 2114.5,3629.5C 2114.5,3631.17 2114.5,3632.83 2114.5,3634.5C 2118.17,3634.5 2121.83,3634.5 2125.5,3634.5C 2125.5,3636.5 2125.5,3638.5 2125.5,3640.5C 2129.18,3640.33 2132.85,3640.5 2136.5,3641C 2137.41,3642.7 2137.74,3644.53 2137.5,3646.5C 2139.5,3646.5 2141.5,3646.5 2143.5,3646.5C 2143.5,3648.5 2143.5,3650.5 2143.5,3652.5C 2146.85,3652.33 2150.18,3652.5 2153.5,3653C 2154.38,3654.36 2154.71,3655.86 2154.5,3657.5C 2159.51,3657.33 2164.51,3657.5 2169.5,3658C 2171.61,3659.26 2172.61,3661.1 2172.5,3663.5C 2179.51,3663.33 2186.51,3663.5 2193.5,3664C 2195.16,3665.44 2195.82,3667.28 2195.5,3669.5C 2225.5,3669.5 2255.5,3669.5 2285.5,3669.5C 2285.5,3667.5 2285.5,3665.5 2285.5,3663.5C 2295.17,3663.5 2304.83,3663.5 2314.5,3663.5C 2314.18,3661.28 2314.84,3659.44 2316.5,3658C 2325.49,3657.5 2334.49,3657.33 2343.5,3657.5C 2343.29,3655.86 2343.62,3654.36 2344.5,3653C 2349.82,3652.5 2355.16,3652.33 2360.5,3652.5C 2360.5,3650.5 2360.5,3648.5 2360.5,3646.5C 2368.17,3646.5 2375.83,3646.5 2383.5,3646.5C 2383.18,3644.28 2383.84,3642.44 2385.5,3641C 2390.82,3640.5 2396.16,3640.33 2401.5,3640.5C 2401.5,3638.5 2401.5,3636.5 2401.5,3634.5C 2407.17,3634.5 2412.83,3634.5 2418.5,3634.5C 2418.14,3632.23 2418.81,3630.4 2420.5,3629C 2425.49,3628.5 2430.49,3628.33 2435.5,3628.5C 2435.29,3626.86 2435.62,3625.36 2436.5,3624C 2442.16,3623.5 2447.82,3623.33 2453.5,3623.5C 2453.5,3621.5 2453.5,3619.5 2453.5,3617.5C 2459.17,3617.5 2464.83,3617.5 2470.5,3617.5C 2470.26,3615.53 2470.59,3613.7 2471.5,3612C 2476.82,3611.5 2482.16,3611.33 2487.5,3611.5C 2487.18,3609.28 2487.84,3607.44 2489.5,3606C 2494.82,3605.5 2500.16,3605.33 2505.5,3605.5C 2505.14,3603.23 2505.81,3601.4 2507.5,3600C 2512.49,3599.5 2517.49,3599.33 2522.5,3599.5C 2522.5,3597.83 2522.5,3596.17 2522.5,3594.5C 2528.5,3594.5 2534.5,3594.5 2540.5,3594.5C 2540.26,3592.53 2540.59,3590.7 2541.5,3589C 2546.82,3588.5 2552.16,3588.33 2557.5,3588.5C 2557.5,3586.5 2557.5,3584.5 2557.5,3582.5C 2563.17,3582.5 2568.83,3582.5 2574.5,3582.5C 2574.18,3580.28 2574.84,3578.44 2576.5,3577C 2583.49,3576.5 2590.49,3576.33 2597.5,3576.5C 2597.3,3574.61 2597.96,3573.11 2599.5,3572C 2604.82,3571.5 2610.16,3571.33 2615.5,3571.5C 2615.5,3569.5 2615.5,3567.5 2615.5,3565.5C 2625.17,3565.5 2634.83,3565.5 2644.5,3565.5C 2644.5,3563.5 2644.5,3561.5 2644.5,3559.5C 2666.5,3559.5 2688.5,3559.5 2710.5,3559.5C 2710.5,3561.5 2710.5,3563.5 2710.5,3565.5C 2714.5,3565.5 2718.5,3565.5 2722.5,3565.5C 2722.5,3567.5 2722.5,3569.5 2722.5,3571.5C 2726.35,3571.02 2728.35,3572.69 2728.5,3576.5C 2730.39,3576.3 2731.89,3576.96 2733,3578.5C 2733.5,3581.82 2733.67,3585.15 2733.5,3588.5C 2735.5,3588.5 2737.5,3588.5 2739.5,3588.5C 2739.5,3592.17 2739.5,3595.83 2739.5,3599.5C 2741.5,3599.83 2743.5,3600.17 2745.5,3600.5C 2745.5,3604.17 2745.5,3607.83 2745.5,3611.5C 2747.72,3611.18 2749.56,3611.84 2751,3613.5C 2751.5,3618.49 2751.67,3623.49 2751.5,3628.5C 2753.9,3628.39 2755.74,3629.39 2757,3631.5C 2757.5,3636.49 2757.67,3641.49 2757.5,3646.5C 2759.14,3646.29 2760.64,3646.62 2762,3647.5C 2762.5,3654.83 2762.67,3662.16 2762.5,3669.5C 2764.5,3669.5 2766.5,3669.5 2768.5,3669.5C 2768.5,3677.17 2768.5,3684.83 2768.5,3692.5C 2770.72,3692.18 2772.56,3692.84 2774,3694.5C 2774.5,3703.49 2774.67,3712.49 2774.5,3721.5C 2777.24,3720.96 2779.07,3721.96 2780,3724.5C 2780.5,3733.16 2780.67,3741.83 2780.5,3750.5C 2782.17,3750.5 2783.83,3750.5 2785.5,3750.5C 2785.5,3762.17 2785.5,3773.83 2785.5,3785.5C 2787.47,3785.26 2789.3,3785.59 2791,3786.5C 2791.5,3797.83 2791.67,3809.16 2791.5,3820.5C 2793.47,3820.26 2795.3,3820.59 2797,3821.5C 2797.5,3834.5 2797.67,3847.5 2797.5,3860.5C 2799.72,3860.18 2801.56,3860.84 2803,3862.5C 2803.5,3875.5 2803.67,3888.5 2803.5,3901.5C 2805.47,3901.26 2807.3,3901.59 2809,3902.5C 2809.5,3919.5 2809.67,3936.5 2809.5,3953.5C 2811.14,3953.29 2812.64,3953.62 2814,3954.5C 2814.5,3971.5 2814.67,3988.5 2814.5,4005.5C 2816.5,4005.5 2818.5,4005.5 2820.5,4005.5C 2820.5,4007.83 2820.5,4010.17 2820.5,4012.5C 1880.17,4012.5 939.833,4012.5 -0.5,4012.5C -0.5,2678.17 -0.5,1343.83 -0.5,9.5 Z"/></g>
<g><path style="opacity:0.999" fill="#f5f5f5" d="M 4996.5,2300.5 C 4996.5,2871.17 4996.5,3441.83 4996.5,4012.5C 4271.5,4012.5 3546.5,4012.5 2821.5,4012.5C 2821.58,4009.79 2821.91,4007.13 2822.5,4004.5C 2828.07,4003.55 2833.74,4003.21 2839.5,4003.5C 2839.21,4001.71 2839.55,4000.05 2840.5,3998.5C 2843.83,3997.91 2847.16,3997.24 2850.5,3996.5C 2851.25,3995.26 2851.58,3993.93 2851.5,3992.5C 2857.12,3991.65 2862.79,3991.31 2868.5,3991.5C 2868.5,3989.83 2868.5,3988.17 2868.5,3986.5C 2874.13,3985.71 2879.8,3985.37 2885.5,3985.5C 2885.42,3984.07 2885.75,3982.74 2886.5,3981.5C 2889.78,3980.68 2893.12,3980.18 2896.5,3980C 2897,3978 2898,3976.34 2899.5,3975C 2904.49,3974.5 2909.49,3974.33 2914.5,3974.5C 2914.29,3972.86 2914.62,3971.36 2915.5,3970C 2918.71,3968.85 2922.04,3968.18 2925.5,3968C 2926.38,3966.64 2926.71,3965.14 2926.5,3963.5C 2932.13,3962.71 2937.8,3962.37 2943.5,3962.5C 2943.29,3960.86 2943.62,3959.36 2944.5,3958C 2947.88,3957.82 2951.22,3957.32 2954.5,3956.5C 2955.31,3954.93 2955.64,3953.26 2955.5,3951.5C 2959.17,3951.5 2962.83,3951.5 2966.5,3951.5C 2966.38,3949.52 2967.05,3947.85 2968.5,3946.5C 2973.48,3945.88 2978.48,3945.21 2983.5,3944.5C 2984.25,3943.26 2984.58,3941.93 2984.5,3940.5C 2988.12,3939.76 2991.79,3939.42 2995.5,3939.5C 2995.29,3937.29 2996.12,3935.62 2998,3934.5C 3001.11,3933.63 3004.27,3933.3 3007.5,3933.5C 3007.5,3931.83 3007.5,3930.17 3007.5,3928.5C 3011.17,3928.5 3014.83,3928.5 3018.5,3928.5C 3018.47,3926.42 3019.14,3924.58 3020.5,3923C 3023.82,3922.5 3027.15,3922.33 3030.5,3922.5C 3030.21,3920.71 3030.55,3919.05 3031.5,3917.5C 3034.83,3916.91 3038.16,3916.24 3041.5,3915.5C 3042.25,3914.26 3042.58,3912.93 3042.5,3911.5C 3046.12,3910.76 3049.79,3910.42 3053.5,3910.5C 3053.42,3909.07 3053.75,3907.74 3054.5,3906.5C 3057.63,3904.98 3060.96,3904.15 3064.5,3904C 3065.17,3902.67 3065.83,3901.33 3066.5,3900C 3069.82,3899.5 3073.15,3899.33 3076.5,3899.5C 3076.47,3897.42 3077.14,3895.58 3078.5,3894C 3081.82,3893.5 3085.15,3893.33 3088.5,3893.5C 3088.21,3891.71 3088.55,3890.05 3089.5,3888.5C 3092.83,3887.91 3096.16,3887.24 3099.5,3886.5C 3100.25,3885.26 3100.58,3883.93 3100.5,3882.5C 3104.12,3881.76 3107.79,3881.42 3111.5,3881.5C 3111.29,3879.86 3111.62,3878.36 3112.5,3877C 3115.75,3875.96 3119.09,3875.3 3122.5,3875C 3123.38,3873.64 3123.71,3872.14 3123.5,3870.5C 3125.17,3870.5 3126.83,3870.5 3128.5,3870.5C 3128.47,3868.42 3129.14,3866.58 3130.5,3865C 3133.82,3864.5 3137.15,3864.33 3140.5,3864.5C 3140.5,3862.83 3140.5,3861.17 3140.5,3859.5C 3144.2,3859.08 3147.87,3858.41 3151.5,3857.5C 3152.25,3856.26 3152.58,3854.93 3152.5,3853.5C 3156.5,3853.5 3158.5,3851.5 3158.5,3847.5C 3162.14,3846.89 3165.8,3846.55 3169.5,3846.5C 3168.96,3842.71 3170.63,3840.71 3174.5,3840.5C 3175.07,3838.94 3175.74,3837.44 3176.5,3836C 3179.82,3835.5 3183.15,3835.33 3186.5,3835.5C 3186.5,3831.5 3188.5,3829.5 3192.5,3829.5C 3191.95,3825.71 3193.62,3823.71 3197.5,3823.5C 3198.45,3821.95 3198.79,3820.29 3198.5,3818.5C 3202.71,3819.05 3205.04,3817.22 3205.5,3813C 3208.82,3812.5 3212.15,3812.33 3215.5,3812.5C 3215.3,3808.19 3217.3,3806.19 3221.5,3806.5C 3221.5,3804.83 3221.5,3803.17 3221.5,3801.5C 3223.5,3801.17 3225.5,3800.83 3227.5,3800.5C 3227.5,3798.83 3227.5,3797.17 3227.5,3795.5C 3231.83,3795.83 3233.83,3793.83 3233.5,3789.5C 3235.17,3789.5 3236.83,3789.5 3238.5,3789.5C 3238.83,3787.5 3239.17,3785.5 3239.5,3783.5C 3241.17,3783.5 3242.83,3783.5 3244.5,3783.5C 3244.5,3779.5 3246.5,3777.5 3250.5,3777.5C 3250.5,3773.83 3250.5,3770.17 3250.5,3766.5C 3255.17,3767.16 3257.17,3765.16 3256.5,3760.5C 3258.17,3760.5 3259.83,3760.5 3261.5,3760.5C 3261.3,3757.27 3261.63,3754.11 3262.5,3751C 3263.62,3749.12 3265.29,3748.29 3267.5,3748.5C 3267.35,3745.03 3269.02,3743.03 3272.5,3742.5C 3273.24,3739.16 3273.91,3735.83 3274.5,3732.5C 3276.05,3731.55 3277.71,3731.21 3279.5,3731.5C 3278.55,3726.95 3280.39,3724.62 3285,3724.5C 3285.49,3723.21 3285.66,3721.87 3285.5,3720.5C 3289.5,3720.5 3291.5,3718.5 3291.5,3714.5C 3292.93,3714.58 3294.26,3714.25 3295.5,3713.5C 3296.41,3709.87 3297.08,3706.2 3297.5,3702.5C 3299.17,3702.5 3300.83,3702.5 3302.5,3702.5C 3301.83,3697.84 3303.83,3695.84 3308.5,3696.5C 3308.5,3694.83 3308.5,3693.17 3308.5,3691.5C 3312.81,3691.7 3314.81,3689.7 3314.5,3685.5C 3315.93,3685.58 3317.26,3685.25 3318.5,3684.5C 3319.29,3681.15 3320.12,3677.82 3321,3674.5C 3322.36,3673.62 3323.86,3673.29 3325.5,3673.5C 3325.5,3669.5 3327.5,3667.5 3331.5,3667.5C 3331.5,3665.83 3331.5,3664.17 3331.5,3662.5C 3333.5,3662.17 3335.5,3661.83 3337.5,3661.5C 3337.5,3659.83 3337.5,3658.17 3337.5,3656.5C 3341.83,3656.83 3343.83,3654.83 3343.5,3650.5C 3345.17,3650.5 3346.83,3650.5 3348.5,3650.5C 3348.3,3647.27 3348.63,3644.11 3349.5,3641C 3350.62,3639.12 3352.29,3638.29 3354.5,3638.5C 3354.35,3635.03 3356.02,3633.03 3359.5,3632.5C 3360.45,3630.95 3360.79,3629.29 3360.5,3627.5C 3365.17,3628.16 3367.17,3626.16 3366.5,3621.5C 3370.71,3622.05 3373.04,3620.22 3373.5,3616C 3374.79,3615.51 3376.13,3615.34 3377.5,3615.5C 3377.42,3611.79 3377.76,3608.12 3378.5,3604.5C 3381.97,3604.65 3383.97,3602.98 3384.5,3599.5C 3387.98,3598.7 3389.98,3596.53 3390.5,3593C 3394.5,3593 3396.5,3591 3396.5,3587C 3397.79,3586.51 3399.13,3586.34 3400.5,3586.5C 3400.42,3582.79 3400.76,3579.12 3401.5,3575.5C 3405.5,3575.5 3407.5,3573.5 3407.5,3569.5C 3409.17,3569.5 3410.83,3569.5 3412.5,3569.5C 3411.5,3564.5 3413.5,3562.5 3418.5,3563.5C 3417.89,3559.49 3419.55,3557.49 3423.5,3557.5C 3423.55,3553.8 3423.89,3550.14 3424.5,3546.5C 3428.7,3546.81 3430.7,3544.81 3430.5,3540.5C 3432.17,3540.5 3433.83,3540.5 3435.5,3540.5C 3435.83,3538.5 3436.17,3536.5 3436.5,3534.5C 3438.17,3534.5 3439.83,3534.5 3441.5,3534.5C 3441.5,3532.83 3441.5,3531.17 3441.5,3529.5C 3443.5,3529.17 3445.5,3528.83 3447.5,3528.5C 3447.5,3524.83 3447.5,3521.17 3447.5,3517.5C 3451.83,3517.83 3453.83,3515.83 3453.5,3511.5C 3455.17,3511.5 3456.83,3511.5 3458.5,3511.5C 3458.83,3509.5 3459.17,3507.5 3459.5,3505.5C 3461.17,3505.5 3462.83,3505.5 3464.5,3505.5C 3464.25,3502.09 3464.58,3498.76 3465.5,3495.5C 3468.98,3494.7 3470.98,3492.53 3471.5,3489C 3472.87,3488.6 3474.21,3488.1 3475.5,3487.5C 3476.17,3484.17 3476.83,3480.83 3477.5,3477.5C 3480.68,3474.71 3484.01,3472.04 3487.5,3469.5C 3488.25,3468.26 3488.58,3466.93 3488.5,3465.5C 3489.93,3465.58 3491.26,3465.25 3492.5,3464.5C 3493.24,3461.16 3493.91,3457.83 3494.5,3454.5C 3496.05,3453.55 3497.71,3453.21 3499.5,3453.5C 3498.83,3448.84 3500.83,3446.84 3505.5,3447.5C 3505.5,3443.83 3505.5,3440.17 3505.5,3436.5C 3509.83,3436.83 3511.83,3434.83 3511.5,3430.5C 3513.17,3430.5 3514.83,3430.5 3516.5,3430.5C 3516.34,3427.48 3516.5,3424.48 3517,3421.5C 3518.17,3419.33 3520.01,3418.33 3522.5,3418.5C 3522.19,3414.3 3524.19,3412.3 3528.5,3412.5C 3528.33,3409.15 3528.5,3405.82 3529,3402.5C 3530.51,3401.91 3532.01,3401.24 3533.5,3400.5C 3533.71,3396.62 3535.71,3394.95 3539.5,3395.5C 3539.42,3391.79 3539.76,3388.12 3540.5,3384.5C 3543.97,3384.65 3545.97,3382.98 3546.5,3379.5C 3547.74,3378.64 3549.07,3377.98 3550.5,3377.5C 3551.32,3374.22 3551.82,3370.88 3552,3367.5C 3553.7,3366.59 3555.53,3366.26 3557.5,3366.5C 3557.5,3364.83 3557.5,3363.17 3557.5,3361.5C 3558.93,3361.58 3560.26,3361.25 3561.5,3360.5C 3562.54,3356.89 3563.21,3353.23 3563.5,3349.5C 3565.14,3349.71 3566.64,3349.38 3568,3348.5C 3568.3,3345.09 3568.96,3341.75 3570,3338.5C 3571.36,3337.62 3572.86,3337.29 3574.5,3337.5C 3574.5,3333.5 3576.5,3331.5 3580.5,3331.5C 3580.33,3328.15 3580.5,3324.82 3581,3321.5C 3582.67,3320.83 3584.33,3320.17 3586,3319.5C 3586.18,3316.12 3586.68,3312.78 3587.5,3309.5C 3588.74,3308.75 3590.07,3308.42 3591.5,3308.5C 3591.55,3304.8 3591.89,3301.14 3592.5,3297.5C 3596.7,3297.81 3598.7,3295.81 3598.5,3291.5C 3600.17,3291.5 3601.83,3291.5 3603.5,3291.5C 3603.34,3288.48 3603.5,3285.48 3604,3282.5C 3605.17,3280.33 3607.01,3279.33 3609.5,3279.5C 3609.5,3275.83 3609.5,3272.17 3609.5,3268.5C 3611.26,3268.64 3612.93,3268.31 3614.5,3267.5C 3615.32,3264.22 3615.82,3260.88 3616,3257.5C 3617.36,3256.62 3618.86,3256.29 3620.5,3256.5C 3620.42,3252.79 3620.76,3249.12 3621.5,3245.5C 3622.93,3245.58 3624.26,3245.25 3625.5,3244.5C 3626.41,3240.87 3627.08,3237.2 3627.5,3233.5C 3629.17,3233.5 3630.83,3233.5 3632.5,3233.5C 3632.33,3230.15 3632.5,3226.82 3633,3223.5C 3634.58,3222.14 3636.42,3221.47 3638.5,3221.5C 3638.5,3217.83 3638.5,3214.17 3638.5,3210.5C 3640.14,3210.71 3641.64,3210.38 3643,3209.5C 3643.3,3206.09 3643.96,3202.75 3645,3199.5C 3646.36,3198.62 3647.86,3198.29 3649.5,3198.5C 3649.42,3194.79 3649.76,3191.12 3650.5,3187.5C 3651.93,3187.58 3653.26,3187.25 3654.5,3186.5C 3655.21,3181.48 3655.88,3176.48 3656.5,3171.5C 3657.85,3170.05 3659.52,3169.38 3661.5,3169.5C 3661.33,3166.15 3661.5,3162.82 3662,3159.5C 3663.44,3158.74 3664.94,3158.07 3666.5,3157.5C 3667.32,3154.22 3667.82,3150.88 3668,3147.5C 3669.36,3146.62 3670.86,3146.29 3672.5,3146.5C 3672.37,3140.8 3672.71,3135.13 3673.5,3129.5C 3675.14,3129.71 3676.64,3129.38 3678,3128.5C 3678.3,3125.09 3678.96,3121.75 3680,3118.5C 3681.36,3117.62 3682.86,3117.29 3684.5,3117.5C 3684.33,3112.49 3684.5,3107.49 3685,3102.5C 3686.07,3100.9 3687.57,3099.9 3689.5,3099.5C 3690.49,3094.21 3690.83,3088.87 3690.5,3083.5C 3692.5,3083.17 3694.5,3082.83 3696.5,3082.5C 3696.33,3077.16 3696.5,3071.82 3697,3066.5C 3698.36,3065.62 3699.86,3065.29 3701.5,3065.5C 3701.37,3059.8 3701.71,3054.13 3702.5,3048.5C 3703.93,3048.58 3705.26,3048.25 3706.5,3047.5C 3707.21,3042.48 3707.88,3037.48 3708.5,3032.5C 3709.85,3031.05 3711.52,3030.38 3713.5,3030.5C 3713.33,3025.49 3713.5,3020.49 3714,3015.5C 3715.4,3013.81 3717.23,3013.14 3719.5,3013.5C 3719.5,3005.83 3719.5,2998.17 3719.5,2990.5C 3721.26,2990.64 3722.93,2990.31 3724.5,2989.5C 3725.5,2982.2 3725.83,2974.86 3725.5,2967.5C 3726.93,2967.58 3728.26,2967.25 3729.5,2966.5C 3730.27,2959.16 3730.94,2951.83 3731.5,2944.5C 3732.93,2944.58 3734.26,2944.25 3735.5,2943.5C 3736.33,2934.85 3736.83,2926.19 3737,2917.5C 3738.07,2915.9 3739.57,2914.9 3741.5,2914.5C 3742.33,2905.52 3742.83,2896.52 3743,2887.5C 3744.44,2886.74 3745.94,2886.07 3747.5,2885.5C 3748.33,2872.51 3748.83,2859.51 3749,2846.5C 3750.67,2845.83 3752.33,2845.17 3754,2844.5C 3754.33,2825.83 3754.67,2807.17 3755,2788.5C 3756.36,2787.62 3757.86,2787.29 3759.5,2787.5C 3759.18,2735.47 3759.51,2683.47 3760.5,2631.5C 3762.14,2631.71 3763.64,2631.38 3765,2630.5C 3765.23,2619.13 3765.73,2607.8 3766.5,2596.5C 3768.17,2596.5 3769.83,2596.5 3771.5,2596.5C 3771.33,2589.16 3771.5,2581.83 3772,2574.5C 3773.67,2573.83 3775.33,2573.17 3777,2572.5C 3777.5,2567.18 3777.67,2561.84 3777.5,2556.5C 3778.93,2556.58 3780.26,2556.25 3781.5,2555.5C 3782.54,2551.89 3783.21,2548.23 3783.5,2544.5C 3785.17,2544.5 3786.83,2544.5 3788.5,2544.5C 3788.3,2541.27 3788.63,2538.11 3789.5,2535C 3790.62,2533.12 3792.29,2532.29 3794.5,2532.5C 3794.34,2529.48 3794.5,2526.48 3795,2523.5C 3796.07,2521.9 3797.57,2520.9 3799.5,2520.5C 3800.32,2517.22 3800.82,2513.88 3801,2510.5C 3802.7,2509.59 3804.53,2509.26 3806.5,2509.5C 3805.89,2505.49 3807.55,2503.49 3811.5,2503.5C 3811.55,2499.8 3811.89,2496.14 3812.5,2492.5C 3816.7,2492.81 3818.7,2490.81 3818.5,2486.5C 3820.17,2486.5 3821.83,2486.5 3823.5,2486.5C 3823.83,2484.5 3824.17,2482.5 3824.5,2480.5C 3826.17,2480.5 3827.83,2480.5 3829.5,2480.5C 3829.5,2478.83 3829.5,2477.17 3829.5,2475.5C 3831.5,2475.17 3833.5,2474.83 3835.5,2474.5C 3835.5,2472.83 3835.5,2471.17 3835.5,2469.5C 3839.81,2469.7 3841.81,2467.7 3841.5,2463.5C 3845.14,2462.89 3848.8,2462.55 3852.5,2462.5C 3852.49,2458.55 3854.49,2456.89 3858.5,2457.5C 3857.83,2452.84 3859.83,2450.84 3864.5,2451.5C 3864.5,2449.83 3864.5,2448.17 3864.5,2446.5C 3868.12,2445.76 3871.79,2445.42 3875.5,2445.5C 3875.29,2443.29 3876.12,2441.62 3878,2440.5C 3881.11,2439.63 3884.27,2439.3 3887.5,2439.5C 3887.5,2437.83 3887.5,2436.17 3887.5,2434.5C 3891.23,2434.82 3894.89,2434.49 3898.5,2433.5C 3899.07,2431.94 3899.74,2430.44 3900.5,2429C 3905.82,2428.5 3911.16,2428.33 3916.5,2428.5C 3916.14,2426.23 3916.81,2424.4 3918.5,2423C 3925.49,2422.5 3932.49,2422.33 3939.5,2422.5C 3939.5,2420.83 3939.5,2419.17 3939.5,2417.5C 3949.13,2416.58 3958.79,2416.25 3968.5,2416.5C 3968.5,2414.83 3968.5,2413.17 3968.5,2411.5C 4007.81,2410.36 4047.14,2410.19 4086.5,2411C 4089.88,2411.31 4091.21,2413.14 4090.5,2416.5C 4102.84,2416.33 4115.17,2416.5 4127.5,2417C 4130.42,2417.66 4131.75,2419.5 4131.5,2422.5C 4140.17,2422.33 4148.84,2422.5 4157.5,2423C 4159.67,2424.17 4160.67,2426.01 4160.5,2428.5C 4169.83,2428.5 4179.17,2428.5 4188.5,2428.5C 4188.36,2430.26 4188.69,2431.93 4189.5,2433.5C 4196.8,2434.5 4204.14,2434.83 4211.5,2434.5C 4211.42,2435.93 4211.75,2437.26 4212.5,2438.5C 4219.89,2439.11 4227.22,2439.94 4234.5,2441C 4235.38,2442.36 4235.71,2443.86 4235.5,2445.5C 4241.21,2445.31 4246.88,2445.65 4252.5,2446.5C 4252.5,2448.17 4252.5,2449.83 4252.5,2451.5C 4257.84,2451.33 4263.18,2451.5 4268.5,2452C 4269.86,2453.58 4270.53,2455.42 4270.5,2457.5C 4275.84,2457.33 4281.18,2457.5 4286.5,2458C 4287.38,2459.36 4287.71,2460.86 4287.5,2462.5C 4293.2,2462.37 4298.87,2462.71 4304.5,2463.5C 4304.29,2465.14 4304.62,2466.64 4305.5,2468C 4310.37,2468.25 4315.21,2468.75 4320,2469.5C 4321.88,2470.62 4322.71,2472.29 4322.5,2474.5C 4328.21,2474.31 4333.88,2474.65 4339.5,2475.5C 4339.5,2477.17 4339.5,2478.83 4339.5,2480.5C 4346.51,2480.33 4353.51,2480.5 4360.5,2481C 4362,2482.34 4363,2484 4363.5,2486C 4368.82,2486.5 4374.16,2486.67 4379.5,2486.5C 4379.42,2487.93 4379.75,2489.26 4380.5,2490.5C 4387.34,2491.22 4394.18,2491.89 4401,2492.5C 4402.88,2493.62 4403.71,2495.29 4403.5,2497.5C 4411.2,2497.31 4418.87,2497.64 4426.5,2498.5C 4426.5,2500.17 4426.5,2501.83 4426.5,2503.5C 4435.17,2503.33 4443.84,2503.5 4452.5,2504C 4455.04,2504.93 4456.04,2506.76 4455.5,2509.5C 4466.83,2509.5 4478.17,2509.5 4489.5,2509.5C 4489.83,2511.5 4490.17,2513.5 4490.5,2515.5C 4513.17,2515.33 4535.84,2515.5 4558.5,2516C 4559.38,2517.36 4559.71,2518.86 4559.5,2520.5C 4574.83,2520.5 4590.17,2520.5 4605.5,2520.5C 4605.29,2518.86 4605.62,2517.36 4606.5,2516C 4627.17,2515.83 4647.84,2515.33 4668.5,2514.5C 4669.07,2512.94 4669.74,2511.44 4670.5,2510C 4679.52,2509.83 4688.52,2509.33 4697.5,2508.5C 4697.9,2506.57 4698.9,2505.07 4700.5,2504C 4707.17,2503.67 4713.83,2503.33 4720.5,2503C 4721.38,2501.64 4721.71,2500.14 4721.5,2498.5C 4727.12,2497.65 4732.79,2497.31 4738.5,2497.5C 4738.29,2495.29 4739.12,2493.62 4741,2492.5C 4745.83,2491.91 4750.67,2491.24 4755.5,2490.5C 4756.25,2489.26 4756.58,2487.93 4756.5,2486.5C 4761.84,2486.67 4767.18,2486.5 4772.5,2486C 4773.17,2484.33 4773.83,2482.67 4774.5,2481C 4777.88,2480.82 4781.22,2480.32 4784.5,2479.5C 4784.9,2477.57 4785.9,2476.07 4787.5,2475C 4790.48,2474.5 4793.48,2474.34 4796.5,2474.5C 4796.29,2472.86 4796.62,2471.36 4797.5,2470C 4800.75,2468.96 4804.09,2468.3 4807.5,2468C 4808.38,2466.64 4808.71,2465.14 4808.5,2463.5C 4812.14,2462.89 4815.8,2462.55 4819.5,2462.5C 4819.42,2461.07 4819.75,2459.74 4820.5,2458.5C 4823.83,2457.83 4827.17,2457.17 4830.5,2456.5C 4831.07,2454.94 4831.74,2453.44 4832.5,2452C 4835.82,2451.5 4839.15,2451.33 4842.5,2451.5C 4842.5,2447.5 4844.5,2445.5 4848.5,2445.5C 4848.29,2443.29 4849.12,2441.62 4851,2440.5C 4853.8,2439.81 4856.63,2439.31 4859.5,2439C 4860.38,2437.64 4860.71,2436.14 4860.5,2434.5C 4865.16,2435.17 4867.16,2433.17 4866.5,2428.5C 4870.17,2428.5 4873.83,2428.5 4877.5,2428.5C 4876.83,2423.84 4878.83,2421.84 4883.5,2422.5C 4883.5,2420.83 4883.5,2419.17 4883.5,2417.5C 4887.81,2417.7 4889.81,2415.7 4889.5,2411.5C 4893.7,2411.81 4895.7,2409.81 4895.5,2405.5C 4899.17,2405.5 4902.83,2405.5 4906.5,2405.5C 4905.5,2400.5 4907.5,2398.5 4912.5,2399.5C 4911.99,2395.6 4913.66,2393.27 4917.5,2392.5C 4918.25,2391.26 4918.58,2389.93 4918.5,2388.5C 4922.5,2388.5 4924.5,2386.5 4924.5,2382.5C 4927.97,2382.65 4929.97,2380.98 4930.5,2377.5C 4932.05,2376.55 4933.71,2376.21 4935.5,2376.5C 4934.5,2371.5 4936.5,2369.5 4941.5,2370.5C 4941.5,2366.83 4941.5,2363.17 4941.5,2359.5C 4945.5,2359.5 4947.5,2357.5 4947.5,2353.5C 4951.7,2353.81 4953.7,2351.81 4953.5,2347.5C 4955.17,2347.5 4956.83,2347.5 4958.5,2347.5C 4958.17,2343.17 4960.17,2341.17 4964.5,2341.5C 4964.33,2338.15 4964.5,2334.82 4965,2331.5C 4968.91,2330.76 4970.74,2328.43 4970.5,2324.5C 4975.16,2325.17 4977.16,2323.17 4976.5,2318.5C 4978.17,2318.5 4979.83,2318.5 4981.5,2318.5C 4981.34,2315.48 4981.5,2312.48 4982,2309.5C 4983.17,2307.33 4985.01,2306.33 4987.5,2306.5C 4987.29,2304.86 4987.62,2303.36 4988.5,2302C 4991.06,2300.92 4993.73,2300.42 4996.5,2300.5 Z"/></g>
</svg>
