<svg width="127" height="90" viewBox="0 0 127 90" fill="none" xmlns="http://www.w3.org/2000/svg">
<path fill-rule="evenodd" clip-rule="evenodd" d="M34.2713 37.2804L126.575 61.4043L38.2403 50.3177L24.5376 63.9262L34.2713 37.2804Z" fill="#BEB58E"/>
<path d="M24.5376 63.9262L42.2092 63.3548L38.2403 50.3177L24.5376 63.9262Z" fill="#716B44"/>
<path d="M26.9477 13.377L121.833 59.6486L34.6613 36.8654L26.9477 13.377Z" fill="#EEECDB" stroke="#BEB58E"/>
<path d="M123.571 61.5319L47.0892 77.7814L38.9417 50.9094L123.571 61.5319Z" fill="#EEECDB" stroke="#BEB58E"/>
<path d="M86.7328 56.4083C86.1037 62.5263 78.4279 67.7941 69.0429 68.1362C54.6715 68.66 48.1298 60.0226 48.1297 51.5529L86.7328 56.4083Z" fill="#FFD84E"/>
<path d="M53.3996 67.1559L48.0063 73.9995" stroke="#FFCD4E" stroke-width="2" stroke-linecap="round"/>
<path d="M46.6578 55.8632L41.8295 56.0846" stroke="#FFCD4E" stroke-width="2" stroke-linecap="round"/>
<path d="M99.2725 61.0988L90.4752 59.1006" stroke="#FFCD4E" stroke-width="2" stroke-linecap="round"/>
<path d="M70.3929 69.3888L70.5353 71.7669" stroke="#FFCD4E" stroke-width="2" stroke-linecap="round"/>
<path d="M84.9122 64.719L88.0321 67.9312" stroke="#FFCD4E" stroke-width="2" stroke-linecap="round"/>
<path d="M46.3583 40.4406C51.43 35.8742 58.9959 37.1849 66.1596 39.0662C71.9221 40.5795 83.3285 45.9813 84.7588 50.4789L46.3583 40.4406Z" fill="#FFD84E"/>
<path d="M46.3583 51.3277C45.5463 49.4455 45.4172 43.7251 46.3583 40.4406L84.7588 50.4789C85.2071 52.4391 85.116 54.9771 84.759 56.1501L46.3583 51.3277Z" fill="#C5992A"/>
<path d="M50.1631 35.2392L44.5843 27.0553" stroke="#FFCD4E" stroke-width="2" stroke-linecap="round"/>
<path d="M88.5007 44.5522L84.0292 46.2079" stroke="#FFCD4E" stroke-width="2" stroke-linecap="round"/>
<path d="M76.5702 38.7245L75.4402 40.3601" stroke="#FFCD4E" stroke-width="2" stroke-linecap="round"/>
<path d="M63.3149 33.2475L63.3393 35.7033" stroke="#FFCD4E" stroke-width="2" stroke-linecap="round"/>
<path d="M35.7018 29.7459C36.4763 29.9814 35.8621 30.7291 35.0875 30.4937C34.4359 30.1086 34.9273 29.5104 35.7018 29.7459Z" fill="#E0CAEF"/>
<path d="M51.1177 28.0806C51.4715 28.1881 51.1909 28.5297 50.8371 28.4222C50.5394 28.2463 50.7639 27.973 51.1177 28.0806Z" fill="#E0CAEF"/>
<path d="M46.0081 61.4341C46.7826 61.6696 46.1683 62.4174 45.3938 62.1819C44.7422 61.7969 45.2336 61.1986 46.0081 61.4341Z" fill="#E0CAEF"/>
<path d="M41.7406 34.9498C41.9988 35.0283 41.9988 35.0283 41.7406 34.9498C42.4047 35.7124 40.7453 35.7686 40.5975 35.1629C40.5975 35.1629 40.7204 35.0134 40.4623 34.9349C40.1916 34.4788 41.7282 34.5722 41.7406 34.9498Z" fill="#E0CAEF"/>
<path d="M103.062 51.9886C103.32 52.0671 103.32 52.0671 103.062 51.9886C103.726 52.7512 102.067 52.8074 101.919 52.2017C101.919 52.2017 102.042 52.0522 101.784 51.9737C101.513 51.5176 103.05 51.611 103.062 51.9886Z" fill="#E0CAEF"/>
<path d="M107.682 60.7897C107.945 60.777 107.945 60.777 107.682 60.7897C108.771 61.528 107.495 62.3807 106.932 61.617C106.932 61.617 106.919 61.3539 106.656 61.3666C106.105 60.8659 107.394 60.2763 107.682 60.7897Z" fill="#E0CAEF"/>
<path d="M37.9565 22.219C38.2146 22.2975 38.2146 22.2975 37.9565 22.219C38.6206 22.9817 36.9611 23.0379 36.8133 22.4322C36.8133 22.4322 36.9363 22.2827 36.6781 22.2042C36.4075 21.7481 37.944 21.8414 37.9565 22.219Z" fill="#E0CAEF"/>
<path d="M97.0397 64.4465C97.8282 64.4083 97.8791 65.4605 97.0906 65.4986C96.3021 65.5368 96.2512 64.4846 97.0397 64.4465Z" fill="#E0CAEF"/>
<path d="M56.0382 30.0249C57.0232 29.9772 57.0868 31.2916 56.1018 31.3392C55.1169 31.3869 55.0533 30.0725 56.0382 30.0249Z" fill="#E0CAEF"/>
<path d="M57.3739 71.2406C58.1624 71.2025 58.2133 72.2547 57.4248 72.2928C56.6363 72.331 56.5854 71.2788 57.3739 71.2406Z" fill="#E0CAEF"/>
<path d="M90.7212 48.9263C91.4957 49.1618 91.0043 49.76 90.2298 49.5245C89.4552 49.289 89.9467 48.6908 90.7212 48.9263Z" fill="#E0CAEF"/>
</svg>
