<svg width="127" height="90" viewBox="0 0 127 90" fill="none" xmlns="http://www.w3.org/2000/svg">
<path fill-rule="evenodd" clip-rule="evenodd" d="M92.5351 37.2804L0.231554 61.4043L88.5661 50.3177L102.269 63.9262L92.5351 37.2804Z" fill="#BEB58E"/>
<path d="M102.269 63.9262L84.5972 63.3548L88.5661 50.3177L102.269 63.9262Z" fill="#716B44"/>
<path d="M99.8587 13.377L4.97295 59.6486L92.1451 36.8654L99.8587 13.377Z" fill="#EEECDB" stroke="#BEB58E"/>
<path d="M3.23496 61.5319L79.7171 77.7814L87.8647 50.9094L3.23496 61.5319Z" fill="#EEECDB" stroke="#BEB58E"/>
<path d="M40.0736 56.4083C40.7027 62.5263 48.3785 67.7941 57.7635 68.1362C72.1348 68.66 78.6766 60.0226 78.6767 51.5529L40.0736 56.4083Z" fill="#FFD84E"/>
<path d="M73.4067 67.1559L78.8 73.9995" stroke="#FFCD4E" stroke-width="2" stroke-linecap="round"/>
<path d="M80.1486 55.8632L84.9768 56.0846" stroke="#FFCD4E" stroke-width="2" stroke-linecap="round"/>
<path d="M27.5339 61.0988L36.3311 59.1006" stroke="#FFCD4E" stroke-width="2" stroke-linecap="round"/>
<path d="M56.4134 69.3888L56.271 71.7669" stroke="#FFCD4E" stroke-width="2" stroke-linecap="round"/>
<path d="M41.8942 64.719L38.7742 67.9312" stroke="#FFCD4E" stroke-width="2" stroke-linecap="round"/>
<path d="M80.4481 40.4406C75.3764 35.8742 67.8105 37.1849 60.6468 39.0662C54.8843 40.5795 43.4779 45.9813 42.0476 50.4789L80.4481 40.4406Z" fill="#FFD84E"/>
<path d="M80.4481 51.3277C81.26 49.4455 81.3892 43.7251 80.4481 40.4406L42.0476 50.4789C41.5993 52.4391 41.6904 54.9771 42.0474 56.1501L80.4481 51.3277Z" fill="#C5992A"/>
<path d="M76.6432 35.2392L82.222 27.0553" stroke="#FFCD4E" stroke-width="2" stroke-linecap="round"/>
<path d="M38.3056 44.5522L42.7771 46.2079" stroke="#FFCD4E" stroke-width="2" stroke-linecap="round"/>
<path d="M50.2361 38.7245L51.3661 40.3601" stroke="#FFCD4E" stroke-width="2" stroke-linecap="round"/>
<path d="M63.4915 33.2475L63.467 35.7033" stroke="#FFCD4E" stroke-width="2" stroke-linecap="round"/>
<path d="M91.1045 29.7459C90.33 29.9814 90.9443 30.7291 91.7188 30.4937C92.3704 30.1086 91.879 29.5104 91.1045 29.7459Z" fill="#E0CAEF"/>
<path d="M75.6886 28.0806C75.3348 28.1881 75.6154 28.5297 75.9692 28.4222C76.2669 28.2463 76.0424 27.973 75.6886 28.0806Z" fill="#E0CAEF"/>
<path d="M80.7982 61.4341C80.0237 61.6696 80.638 62.4174 81.4125 62.1819C82.0642 61.7969 81.5727 61.1986 80.7982 61.4341Z" fill="#E0CAEF"/>
<path d="M85.0657 34.9498C84.8076 35.0283 84.8076 35.0283 85.0657 34.9498C84.4016 35.7124 86.0611 35.7686 86.2088 35.1629C86.2088 35.1629 86.0859 35.0134 86.3441 34.9349C86.6147 34.4788 85.0782 34.5722 85.0657 34.9498Z" fill="#E0CAEF"/>
<path d="M23.7443 51.9886C23.4862 52.0671 23.4862 52.0671 23.7443 51.9886C23.0802 52.7512 24.7397 52.8074 24.8875 52.2017C24.8875 52.2017 24.7645 52.0522 25.0227 51.9737C25.2933 51.5176 23.7568 51.611 23.7443 51.9886Z" fill="#E0CAEF"/>
<path d="M19.1244 60.7897C18.8616 60.777 18.8616 60.777 19.1244 60.7897C18.0349 61.528 19.3109 62.3807 19.8748 61.617C19.8748 61.617 19.8874 61.3539 20.1503 61.3666C20.7014 60.8659 19.4127 60.2763 19.1244 60.7897Z" fill="#E0CAEF"/>
<path d="M88.8499 22.219C88.5917 22.2975 88.5917 22.2975 88.8499 22.219C88.1858 22.9817 89.8453 23.0379 89.993 22.4322C89.993 22.4322 89.8701 22.2827 90.1283 22.2042C90.3989 21.7481 88.8624 21.8414 88.8499 22.219Z" fill="#E0CAEF"/>
<path d="M29.7666 64.4465C28.9781 64.4083 28.9272 65.4605 29.7157 65.4986C30.5042 65.5368 30.5551 64.4846 29.7666 64.4465Z" fill="#E0CAEF"/>
<path d="M70.7681 30.0249C69.7831 29.9772 69.7195 31.2916 70.7045 31.3392C71.6895 31.3869 71.7531 30.0725 70.7681 30.0249Z" fill="#E0CAEF"/>
<path d="M69.4324 71.2406C68.6439 71.2025 68.593 72.2547 69.3815 72.2928C70.17 72.331 70.2209 71.2788 69.4324 71.2406Z" fill="#E0CAEF"/>
<path d="M36.0851 48.9263C35.3106 49.1618 35.802 49.76 36.5765 49.5245C37.3511 49.289 36.8596 48.6908 36.0851 48.9263Z" fill="#E0CAEF"/>
</svg>
